<svg width="112" height="28" viewBox="0 0 112 28" fill="none" xmlns="http://www.w3.org/2000/svg">
<path d="M84.272 12.9C84.6301 12.6244 85.0438 12.219 85.3194 11.8569H85.8293C85.9811 12.1752 86.2292 12.6244 86.4636 12.9H84.272ZM85.678 15.291H83.6796L83.8446 14.4215L82.9353 13.987H85.9536L85.6775 15.291H85.678ZM87.1936 11.8569H89.3164L89.5645 10.7556H85.9256C86.0305 10.5463 86.1181 10.3282 86.1875 10.1036H89.1508L89.4126 8.95911H88.4203C88.6546 8.42274 88.9027 7.78502 89.0958 7.26343H87.676C87.4922 7.83734 87.2854 8.40306 87.056 8.95911H86.4906C86.6286 8.37945 86.7117 7.64037 86.7392 7.01689H85.3194C85.2994 7.67308 85.2069 8.32472 85.0438 8.95911H84.5614L84.2302 7.26343H82.8385L83.1971 8.95911H82.2185L82.0117 10.1036H84.7407C84.6711 10.3352 84.5689 10.5549 84.4376 10.7556H81.9154L81.6811 11.8569H83.7208C83.1834 12.4798 82.3148 12.9143 81.46 13.1318L81.1711 14.5371C81.6215 14.4421 82.0605 14.2965 82.4804 14.1026L82.0667 16.4355H86.6429C86.8355 16.4355 86.918 16.5078 86.8905 16.7105C86.8079 17.3192 86.6561 18.0583 86.5323 18.667H83.8309L84.134 19.8115H87.8003C88.0209 18.5509 88.2965 17.0584 88.4478 15.9862C88.5308 15.3923 88.1997 15.291 87.7448 15.291H87.0698L87.3867 13.7838C87.8966 14.1174 88.5308 14.4067 89.1095 14.5371L89.5782 13.2912C88.7377 13.1027 87.649 12.5669 87.1941 11.8569H87.1936ZM101.106 7.39383H94.6699L94.9455 8.68353H99.7556C100.073 8.68353 100.224 8.72682 100.155 9.10376C99.9761 10.1469 99.7831 11.2049 99.59 12.2333H97.4952L97.8539 10.0313L96.3928 9.13279L95.8549 12.2333H94.2976L94.0912 13.523H95.6205C95.3037 15.6098 94.9175 17.7395 94.5181 19.8263H96.186C96.5716 17.7252 96.9578 15.6241 97.2884 13.523H99.3699C99.0224 15.6287 98.6502 17.73 98.2533 19.8263H101.203L101.712 18.5224H100.142C100.762 15.2039 101.41 11.7407 101.96 8.39371C102.085 7.6694 101.947 7.39383 101.106 7.39383V7.39383ZM93.5258 10.7408H90.6317L90.4111 12.0305H91.7066C91.3485 14.5952 90.8523 17.3773 90.3143 20C91.5553 19.2609 92.9058 18.2468 93.8844 17.3773L94.1875 15.5085C93.6638 15.9862 93.0846 16.4497 92.5334 16.8848C92.9053 14.8269 93.2364 12.7696 93.5258 10.7408V10.7408ZM86.0779 17.0004V16.9861H80.9781L81.1711 18.1016H85.8431L86.0774 17.0004H86.0779ZM21.5513 7H10.3072L10 8.86197H14.3658L12.537 19.8004H15.0128L16.8416 8.86197H21.2451L21.5523 7H21.5513ZM94.0357 10.0593C93.8289 9.04569 93.567 7.98774 93.347 7.00211H91.7891C91.996 8.00199 92.217 9.07419 92.3953 10.0593H94.0357ZM34.3135 10.8406C32.7684 10.8406 31.6115 11.5142 31.0659 12.1942H31.0083L28.8295 10.8406C28.7495 11.5998 28.642 12.6308 28.4744 13.6439L27.4581 19.8004H29.9324L30.7928 14.6432C30.8346 14.3909 30.9161 14.1216 31.022 13.94C31.3924 13.2632 32.1683 12.6403 33.1515 12.6403C34.5025 12.6403 34.8698 13.5979 34.6624 14.8549L33.8351 19.8004H36.3099L37.181 14.5952C37.6395 11.8236 36.018 10.8396 34.3129 10.8396L34.3135 10.8406ZM54.3564 14.488H50.0517C50.3105 13.5911 51.147 12.352 52.6686 12.352C54.3258 12.352 54.5005 13.6766 54.3564 14.488ZM53.0726 10.8401C49.9269 10.8401 47.9136 12.9222 47.5137 15.3401C47.0705 18.0261 48.6401 19.991 51.8148 19.991C53.2336 19.991 54.5607 19.7112 55.6391 19.0809L55.9743 17.078C54.9208 17.8709 53.58 18.3149 52.444 18.3149C50.8617 18.3149 49.6044 17.6217 49.8011 16.0327H56.3421C56.4201 15.8442 56.5148 15.5137 56.5836 15.1014C56.8994 13.1825 56.2525 10.8406 53.0731 10.8406L53.0726 10.8401ZM38.2197 15.301C37.7715 18.0214 39.583 19.99 42.6492 19.99C43.8683 19.99 45.3242 19.622 45.8754 19.4066L46.2758 17.0642C45.4159 18.0356 44.2498 18.2383 43.423 18.2383C41.7384 18.2383 40.4633 17.2073 40.7603 15.4103C41.018 13.8038 42.4653 12.5695 44.3517 12.5695C45.1199 12.5695 46.1622 12.8398 46.8194 13.7489L47.203 11.3664C46.3625 11.0151 45.4638 10.8379 44.5575 10.8448C41.1174 10.8448 38.6538 12.6783 38.2203 15.3015L38.2197 15.301ZM24.6654 14.488H20.3607C20.619 13.5911 21.456 12.352 22.9782 12.352C24.6348 12.352 24.8101 13.6766 24.6654 14.488V14.488ZM23.3822 10.8401C20.2364 10.8401 18.2227 12.9222 17.8228 15.3401C17.3796 18.0261 18.9491 19.991 22.1239 19.991C23.5426 19.991 24.8697 19.7112 25.9481 19.0809L26.2833 17.078C25.2293 17.8709 23.889 18.3149 22.753 18.3149C21.1702 18.3149 19.9119 17.6217 20.1101 16.0327H26.6501C26.7291 15.8442 26.8233 15.5137 26.8921 15.1014C27.209 13.1825 26.5615 10.8406 23.3822 10.8406V10.8401ZM64.0039 10.8401C62.4588 10.8401 61.3024 11.5142 60.7568 12.1942H60.6993L58.521 10.8406C58.4405 11.5998 58.3325 12.6308 58.1649 13.6439L57.1486 19.8015H59.6228L60.4838 14.6443C60.5245 14.3919 60.6071 14.1227 60.713 13.9411C61.0834 13.2643 61.8587 12.6413 62.8424 12.6413C64.1939 12.6413 64.5602 13.599 64.3529 14.856L63.5266 19.8015H66.0009L66.872 14.5962C67.3295 11.8247 65.709 10.8406 64.0039 10.8406V10.8401ZM80.5782 8.85775L80.2338 10.7561H79.2964C79.434 10.0023 79.5445 9.27797 79.6546 8.5827H80.3443C80.5369 8.5827 80.6194 8.64077 80.5787 8.85775H80.5782ZM79.6546 14.2193H78.6627C78.814 13.4369 78.9658 12.654 79.1034 11.9007H80.0545L79.6546 14.2193ZM81.1431 7.37957H78.5384C77.8767 11.8421 77.298 15.8843 76.1268 19.8121H77.5185C77.8337 18.3308 78.1415 16.8478 78.4421 15.3633H79.434C79.1996 16.7976 78.8828 18.3481 78.6072 19.8115H79.9994C80.6887 15.9282 81.2949 12.0738 81.9704 8.1762C82.0942 7.49519 81.8186 7.37905 81.1431 7.37905V7.37957ZM69.9255 11.0365H67.1389L68.2352 12.6894H69.6484L68.4604 19.8004H70.9352L72.1252 12.6894H75.2118L70.3387 8.56792L69.926 11.0365H69.9255Z" fill="#0052D9"/>
</svg>
