<svg width="188" height="188" viewBox="0 0 188 188" fill="none" xmlns="http://www.w3.org/2000/svg">
<rect width="188" height="188" fill="white"/>
<path d="M18.5806 13H13V18.5806H18.5806V13Z" fill="black"/>
<path d="M24.1607 13H18.5801V18.5806H24.1607V13Z" fill="black"/>
<path d="M29.7418 13H24.1611V18.5806H29.7418V13Z" fill="black"/>
<path d="M35.3228 13H29.7422V18.5806H35.3228V13Z" fill="black"/>
<path d="M40.9029 13H35.3223V18.5806H40.9029V13Z" fill="black"/>
<path d="M46.484 13H40.9033V18.5806H46.484V13Z" fill="black"/>
<path d="M52.065 13H46.4844V18.5806H52.065V13Z" fill="black"/>
<path d="M68.8062 13H63.2256V18.5806H68.8062V13Z" fill="black"/>
<path d="M85.5484 13H79.9678V18.5806H85.5484V13Z" fill="black"/>
<path d="M96.7095 13H91.1289V18.5806H96.7095V13Z" fill="black"/>
<path d="M102.291 13H96.71V18.5806H102.291V13Z" fill="black"/>
<path d="M119.032 13H113.451V18.5806H119.032V13Z" fill="black"/>
<path d="M141.355 13H135.774V18.5806H141.355V13Z" fill="black"/>
<path d="M146.935 13H141.354V18.5806H146.935V13Z" fill="black"/>
<path d="M152.516 13H146.936V18.5806H152.516V13Z" fill="black"/>
<path d="M158.096 13H152.516V18.5806H158.096V13Z" fill="black"/>
<path d="M163.677 13H158.097V18.5806H163.677V13Z" fill="black"/>
<path d="M169.258 13H163.678V18.5806H169.258V13Z" fill="black"/>
<path d="M174.838 13H169.258V18.5806H174.838V13Z" fill="black"/>
<path d="M18.5806 18.5804H13V24.161H18.5806V18.5804Z" fill="black"/>
<path d="M52.065 18.5804H46.4844V24.161H52.065V18.5804Z" fill="black"/>
<path d="M74.3873 18.5804H68.8066V24.161H74.3873V18.5804Z" fill="black"/>
<path d="M79.9674 18.5804H74.3867V24.161H79.9674V18.5804Z" fill="black"/>
<path d="M85.5484 18.5804H79.9678V24.161H85.5484V18.5804Z" fill="black"/>
<path d="M91.1295 18.5804H85.5488V24.161H91.1295V18.5804Z" fill="black"/>
<path d="M96.7095 18.5804H91.1289V24.161H96.7095V18.5804Z" fill="black"/>
<path d="M102.291 18.5804H96.71V24.161H102.291V18.5804Z" fill="black"/>
<path d="M119.032 18.5804H113.451V24.161H119.032V18.5804Z" fill="black"/>
<path d="M124.613 18.5804H119.032V24.161H124.613V18.5804Z" fill="black"/>
<path d="M130.194 18.5804H124.613V24.161H130.194V18.5804Z" fill="black"/>
<path d="M141.355 18.5804H135.774V24.161H141.355V18.5804Z" fill="black"/>
<path d="M174.838 18.5804H169.258V24.161H174.838V18.5804Z" fill="black"/>
<path d="M18.5806 24.1608H13V29.7414H18.5806V24.1608Z" fill="black"/>
<path d="M29.7418 24.1608H24.1611V29.7414H29.7418V24.1608Z" fill="black"/>
<path d="M35.3228 24.1608H29.7422V29.7414H35.3228V24.1608Z" fill="black"/>
<path d="M40.9029 24.1608H35.3223V29.7414H40.9029V24.1608Z" fill="black"/>
<path d="M52.065 24.1608H46.4844V29.7414H52.065V24.1608Z" fill="black"/>
<path d="M63.2262 24.1608H57.6455V29.7414H63.2262V24.1608Z" fill="black"/>
<path d="M68.8062 24.1608H63.2256V29.7414H68.8062V24.1608Z" fill="black"/>
<path d="M74.3873 24.1608H68.8066V29.7414H74.3873V24.1608Z" fill="black"/>
<path d="M85.5484 24.1608H79.9678V29.7414H85.5484V24.1608Z" fill="black"/>
<path d="M96.7095 24.1608H91.1289V29.7414H96.7095V24.1608Z" fill="black"/>
<path d="M102.291 24.1608H96.71V29.7414H102.291V24.1608Z" fill="black"/>
<path d="M107.871 24.1608H102.29V29.7414H107.871V24.1608Z" fill="black"/>
<path d="M119.032 24.1608H113.451V29.7414H119.032V24.1608Z" fill="black"/>
<path d="M141.355 24.1608H135.774V29.7414H141.355V24.1608Z" fill="black"/>
<path d="M152.516 24.1608H146.936V29.7414H152.516V24.1608Z" fill="black"/>
<path d="M158.096 24.1608H152.516V29.7414H158.096V24.1608Z" fill="black"/>
<path d="M163.677 24.1608H158.097V29.7414H163.677V24.1608Z" fill="black"/>
<path d="M174.838 24.1608H169.258V29.7414H174.838V24.1608Z" fill="black"/>
<path d="M18.5806 29.7423H13V35.3229H18.5806V29.7423Z" fill="black"/>
<path d="M29.7418 29.7423H24.1611V35.3229H29.7418V29.7423Z" fill="black"/>
<path d="M35.3228 29.7423H29.7422V35.3229H35.3228V29.7423Z" fill="black"/>
<path d="M40.9029 29.7423H35.3223V35.3229H40.9029V29.7423Z" fill="black"/>
<path d="M52.065 29.7423H46.4844V35.3229H52.065V29.7423Z" fill="black"/>
<path d="M68.8062 29.7423H63.2256V35.3229H68.8062V29.7423Z" fill="black"/>
<path d="M74.3873 29.7423H68.8066V35.3229H74.3873V29.7423Z" fill="black"/>
<path d="M79.9674 29.7423H74.3867V35.3229H79.9674V29.7423Z" fill="black"/>
<path d="M102.291 29.7423H96.71V35.3229H102.291V29.7423Z" fill="black"/>
<path d="M107.871 29.7423H102.29V35.3229H107.871V29.7423Z" fill="black"/>
<path d="M119.032 29.7423H113.451V35.3229H119.032V29.7423Z" fill="black"/>
<path d="M124.613 29.7423H119.032V35.3229H124.613V29.7423Z" fill="black"/>
<path d="M141.355 29.7423H135.774V35.3229H141.355V29.7423Z" fill="black"/>
<path d="M152.516 29.7423H146.936V35.3229H152.516V29.7423Z" fill="black"/>
<path d="M158.096 29.7423H152.516V35.3229H158.096V29.7423Z" fill="black"/>
<path d="M163.677 29.7423H158.097V35.3229H163.677V29.7423Z" fill="black"/>
<path d="M174.838 29.7423H169.258V35.3229H174.838V29.7423Z" fill="black"/>
<path d="M18.5806 35.3227H13V40.9033H18.5806V35.3227Z" fill="black"/>
<path d="M29.7418 35.3227H24.1611V40.9033H29.7418V35.3227Z" fill="black"/>
<path d="M35.3228 35.3227H29.7422V40.9033H35.3228V35.3227Z" fill="black"/>
<path d="M40.9029 35.3227H35.3223V40.9033H40.9029V35.3227Z" fill="black"/>
<path d="M52.065 35.3227H46.4844V40.9033H52.065V35.3227Z" fill="black"/>
<path d="M74.3873 35.3227H68.8066V40.9033H74.3873V35.3227Z" fill="black"/>
<path d="M91.1295 35.3227H85.5488V40.9033H91.1295V35.3227Z" fill="black"/>
<path d="M113.452 35.3227H107.871V40.9033H113.452V35.3227Z" fill="black"/>
<path d="M119.032 35.3227H113.451V40.9033H119.032V35.3227Z" fill="black"/>
<path d="M141.355 35.3227H135.774V40.9033H141.355V35.3227Z" fill="black"/>
<path d="M152.516 35.3227H146.936V40.9033H152.516V35.3227Z" fill="black"/>
<path d="M158.096 35.3227H152.516V40.9033H158.096V35.3227Z" fill="black"/>
<path d="M163.677 35.3227H158.097V40.9033H163.677V35.3227Z" fill="black"/>
<path d="M174.838 35.3227H169.258V40.9033H174.838V35.3227Z" fill="black"/>
<path d="M18.5806 40.9031H13V46.4837H18.5806V40.9031Z" fill="black"/>
<path d="M52.065 40.9031H46.4844V46.4837H52.065V40.9031Z" fill="black"/>
<path d="M68.8062 40.9031H63.2256V46.4837H68.8062V40.9031Z" fill="black"/>
<path d="M91.1295 40.9031H85.5488V46.4837H91.1295V40.9031Z" fill="black"/>
<path d="M102.291 40.9031H96.71V46.4837H102.291V40.9031Z" fill="black"/>
<path d="M124.613 40.9031H119.032V46.4837H124.613V40.9031Z" fill="black"/>
<path d="M130.194 40.9031H124.613V46.4837H130.194V40.9031Z" fill="black"/>
<path d="M141.355 40.9031H135.774V46.4837H141.355V40.9031Z" fill="black"/>
<path d="M174.838 40.9031H169.258V46.4837H174.838V40.9031Z" fill="black"/>
<path d="M18.5806 46.4835H13V52.0641H18.5806V46.4835Z" fill="black"/>
<path d="M24.1607 46.4835H18.5801V52.0641H24.1607V46.4835Z" fill="black"/>
<path d="M29.7418 46.4835H24.1611V52.0641H29.7418V46.4835Z" fill="black"/>
<path d="M35.3228 46.4835H29.7422V52.0641H35.3228V46.4835Z" fill="black"/>
<path d="M40.9029 46.4835H35.3223V52.0641H40.9029V46.4835Z" fill="black"/>
<path d="M46.484 46.4835H40.9033V52.0641H46.484V46.4835Z" fill="black"/>
<path d="M52.065 46.4835H46.4844V52.0641H52.065V46.4835Z" fill="black"/>
<path d="M63.2262 46.4835H57.6455V52.0641H63.2262V46.4835Z" fill="black"/>
<path d="M74.3873 46.4835H68.8066V52.0641H74.3873V46.4835Z" fill="black"/>
<path d="M85.5484 46.4835H79.9678V52.0641H85.5484V46.4835Z" fill="black"/>
<path d="M96.7095 46.4835H91.1289V52.0641H96.7095V46.4835Z" fill="black"/>
<path d="M107.871 46.4835H102.29V52.0641H107.871V46.4835Z" fill="black"/>
<path d="M119.032 46.4835H113.451V52.0641H119.032V46.4835Z" fill="black"/>
<path d="M130.194 46.4835H124.613V52.0641H130.194V46.4835Z" fill="black"/>
<path d="M141.355 46.4835H135.774V52.0641H141.355V46.4835Z" fill="black"/>
<path d="M146.935 46.4835H141.354V52.0641H146.935V46.4835Z" fill="black"/>
<path d="M152.516 46.4835H146.936V52.0641H152.516V46.4835Z" fill="black"/>
<path d="M158.096 46.4835H152.516V52.0641H158.096V46.4835Z" fill="black"/>
<path d="M163.677 46.4835H158.097V52.0641H163.677V46.4835Z" fill="black"/>
<path d="M169.258 46.4835H163.678V52.0641H169.258V46.4835Z" fill="black"/>
<path d="M174.838 46.4835H169.258V52.0641H174.838V46.4835Z" fill="black"/>
<path d="M63.2262 52.065H57.6455V57.6456H63.2262V52.065Z" fill="black"/>
<path d="M68.8062 52.065H63.2256V57.6456H68.8062V52.065Z" fill="black"/>
<path d="M74.3873 52.065H68.8066V57.6456H74.3873V52.065Z" fill="black"/>
<path d="M85.5484 52.065H79.9678V57.6456H85.5484V52.065Z" fill="black"/>
<path d="M91.1295 52.065H85.5488V57.6456H91.1295V52.065Z" fill="black"/>
<path d="M102.291 52.065H96.71V57.6456H102.291V52.065Z" fill="black"/>
<path d="M113.452 52.065H107.871V57.6456H113.452V52.065Z" fill="black"/>
<path d="M119.032 52.065H113.451V57.6456H119.032V52.065Z" fill="black"/>
<path d="M130.194 52.065H124.613V57.6456H130.194V52.065Z" fill="black"/>
<path d="M18.5806 57.6454H13V63.226H18.5806V57.6454Z" fill="black"/>
<path d="M24.1607 57.6454H18.5801V63.226H24.1607V57.6454Z" fill="black"/>
<path d="M29.7418 57.6454H24.1611V63.226H29.7418V57.6454Z" fill="black"/>
<path d="M40.9029 57.6454H35.3223V63.226H40.9029V57.6454Z" fill="black"/>
<path d="M46.484 57.6454H40.9033V63.226H46.484V57.6454Z" fill="black"/>
<path d="M52.065 57.6454H46.4844V63.226H52.065V57.6454Z" fill="black"/>
<path d="M57.6451 57.6454H52.0645V63.226H57.6451V57.6454Z" fill="black"/>
<path d="M63.2262 57.6454H57.6455V63.226H63.2262V57.6454Z" fill="black"/>
<path d="M74.3873 57.6454H68.8066V63.226H74.3873V57.6454Z" fill="black"/>
<path d="M79.9674 57.6454H74.3867V63.226H79.9674V57.6454Z" fill="black"/>
<path d="M91.1295 57.6454H85.5488V63.226H91.1295V57.6454Z" fill="black"/>
<path d="M102.291 57.6454H96.71V63.226H102.291V57.6454Z" fill="black"/>
<path d="M124.613 57.6454H119.032V63.226H124.613V57.6454Z" fill="black"/>
<path d="M130.194 57.6454H124.613V63.226H130.194V57.6454Z" fill="black"/>
<path d="M135.774 57.6454H130.193V63.226H135.774V57.6454Z" fill="black"/>
<path d="M141.355 57.6454H135.774V63.226H141.355V57.6454Z" fill="black"/>
<path d="M163.677 57.6454H158.097V63.226H163.677V57.6454Z" fill="black"/>
<path d="M63.2262 63.2258H57.6455V68.8064H63.2262V63.2258Z" fill="black"/>
<path d="M74.3873 63.2258H68.8066V68.8064H74.3873V63.2258Z" fill="black"/>
<path d="M79.9674 63.2258H74.3867V68.8064H79.9674V63.2258Z" fill="black"/>
<path d="M91.1295 63.2258H85.5488V68.8064H91.1295V63.2258Z" fill="black"/>
<path d="M102.291 63.2258H96.71V68.8064H102.291V63.2258Z" fill="black"/>
<path d="M107.871 63.2258H102.29V68.8064H107.871V63.2258Z" fill="black"/>
<path d="M113.452 63.2258H107.871V68.8064H113.452V63.2258Z" fill="black"/>
<path d="M119.032 63.2258H113.451V68.8064H119.032V63.2258Z" fill="black"/>
<path d="M135.774 63.2258H130.193V68.8064H135.774V63.2258Z" fill="black"/>
<path d="M141.355 63.2258H135.774V68.8064H141.355V63.2258Z" fill="black"/>
<path d="M158.096 63.2258H152.516V68.8064H158.096V63.2258Z" fill="black"/>
<path d="M174.838 63.2258H169.258V68.8064H174.838V63.2258Z" fill="black"/>
<path d="M18.5806 68.8062H13V74.3868H18.5806V68.8062Z" fill="black"/>
<path d="M35.3228 68.8062H29.7422V74.3868H35.3228V68.8062Z" fill="black"/>
<path d="M40.9029 68.8062H35.3223V74.3868H40.9029V68.8062Z" fill="black"/>
<path d="M46.484 68.8062H40.9033V74.3868H46.484V68.8062Z" fill="black"/>
<path d="M52.065 68.8062H46.4844V74.3868H52.065V68.8062Z" fill="black"/>
<path d="M68.8062 68.8062H63.2256V74.3868H68.8062V68.8062Z" fill="black"/>
<path d="M91.1295 68.8062H85.5488V74.3868H91.1295V68.8062Z" fill="black"/>
<path d="M96.7095 68.8062H91.1289V74.3868H96.7095V68.8062Z" fill="black"/>
<path d="M113.452 68.8062H107.871V74.3868H113.452V68.8062Z" fill="black"/>
<path d="M119.032 68.8062H113.451V74.3868H119.032V68.8062Z" fill="black"/>
<path d="M141.355 68.8062H135.774V74.3868H141.355V68.8062Z" fill="black"/>
<path d="M146.935 68.8062H141.354V74.3868H146.935V68.8062Z" fill="black"/>
<path d="M152.516 68.8062H146.936V74.3868H152.516V68.8062Z" fill="black"/>
<path d="M163.677 68.8062H158.097V74.3868H163.677V68.8062Z" fill="black"/>
<path d="M169.258 68.8062H163.678V74.3868H169.258V68.8062Z" fill="black"/>
<path d="M174.838 68.8062H169.258V74.3868H174.838V68.8062Z" fill="black"/>
<path d="M24.1607 74.3866H18.5801V79.9672H24.1607V74.3866Z" fill="black"/>
<path d="M29.7418 74.3866H24.1611V79.9672H29.7418V74.3866Z" fill="black"/>
<path d="M35.3228 74.3866H29.7422V79.9672H35.3228V74.3866Z" fill="black"/>
<path d="M40.9029 74.3866H35.3223V79.9672H40.9029V74.3866Z" fill="black"/>
<path d="M46.484 74.3866H40.9033V79.9672H46.484V74.3866Z" fill="black"/>
<path d="M63.2262 74.3866H57.6455V79.9672H63.2262V74.3866Z" fill="black"/>
<path d="M79.9674 74.3866H74.3867V79.9672H79.9674V74.3866Z" fill="black"/>
<path d="M91.1295 74.3866H85.5488V79.9672H91.1295V74.3866Z" fill="black"/>
<path d="M96.7095 74.3866H91.1289V79.9672H96.7095V74.3866Z" fill="black"/>
<path d="M107.871 74.3866H102.29V79.9672H107.871V74.3866Z" fill="black"/>
<path d="M113.452 74.3866H107.871V79.9672H113.452V74.3866Z" fill="black"/>
<path d="M119.032 74.3866H113.451V79.9672H119.032V74.3866Z" fill="black"/>
<path d="M124.613 74.3866H119.032V79.9672H124.613V74.3866Z" fill="black"/>
<path d="M130.194 74.3866H124.613V79.9672H130.194V74.3866Z" fill="black"/>
<path d="M141.355 74.3866H135.774V79.9672H141.355V74.3866Z" fill="black"/>
<path d="M169.258 74.3866H163.678V79.9672H169.258V74.3866Z" fill="black"/>
<path d="M18.5806 79.9681H13V85.5487H18.5806V79.9681Z" fill="black"/>
<path d="M24.1607 79.9681H18.5801V85.5487H24.1607V79.9681Z" fill="black"/>
<path d="M35.3228 79.9681H29.7422V85.5487H35.3228V79.9681Z" fill="black"/>
<path d="M52.065 79.9681H46.4844V85.5487H52.065V79.9681Z" fill="black"/>
<path d="M63.2262 79.9681H57.6455V85.5487H63.2262V79.9681Z" fill="black"/>
<path d="M85.5484 79.9681H79.9678V85.5487H85.5484V79.9681Z" fill="black"/>
<path d="M107.871 79.9681H102.29V85.5487H107.871V79.9681Z" fill="black"/>
<path d="M113.452 79.9681H107.871V85.5487H113.452V79.9681Z" fill="black"/>
<path d="M124.613 79.9681H119.032V85.5487H124.613V79.9681Z" fill="black"/>
<path d="M130.194 79.9681H124.613V85.5487H130.194V79.9681Z" fill="black"/>
<path d="M135.774 79.9681H130.193V85.5487H135.774V79.9681Z" fill="black"/>
<path d="M141.355 79.9681H135.774V85.5487H141.355V79.9681Z" fill="black"/>
<path d="M158.096 79.9681H152.516V85.5487H158.096V79.9681Z" fill="black"/>
<path d="M169.258 79.9681H163.678V85.5487H169.258V79.9681Z" fill="black"/>
<path d="M174.838 79.9681H169.258V85.5487H174.838V79.9681Z" fill="black"/>
<path d="M18.5806 85.5485H13V91.1291H18.5806V85.5485Z" fill="black"/>
<path d="M29.7418 85.5485H24.1611V91.1291H29.7418V85.5485Z" fill="black"/>
<path d="M40.9029 85.5485H35.3223V91.1291H40.9029V85.5485Z" fill="black"/>
<path d="M57.6451 85.5485H52.0645V91.1291H57.6451V85.5485Z" fill="black"/>
<path d="M63.2262 85.5485H57.6455V91.1291H63.2262V85.5485Z" fill="black"/>
<path d="M68.8062 85.5485H63.2256V91.1291H68.8062V85.5485Z" fill="black"/>
<path d="M79.9674 85.5485H74.3867V91.1291H79.9674V85.5485Z" fill="black"/>
<path d="M85.5484 85.5485H79.9678V91.1291H85.5484V85.5485Z" fill="black"/>
<path d="M107.871 85.5485H102.29V91.1291H107.871V85.5485Z" fill="black"/>
<path d="M130.194 85.5485H124.613V91.1291H130.194V85.5485Z" fill="black"/>
<path d="M135.774 85.5485H130.193V91.1291H135.774V85.5485Z" fill="black"/>
<path d="M141.355 85.5485H135.774V91.1291H141.355V85.5485Z" fill="black"/>
<path d="M158.096 85.5485H152.516V91.1291H158.096V85.5485Z" fill="black"/>
<path d="M174.838 85.5485H169.258V91.1291H174.838V85.5485Z" fill="black"/>
<path d="M18.5806 91.1288H13V96.7095H18.5806V91.1288Z" fill="black"/>
<path d="M24.1607 91.1288H18.5801V96.7095H24.1607V91.1288Z" fill="black"/>
<path d="M29.7418 91.1288H24.1611V96.7095H29.7418V91.1288Z" fill="black"/>
<path d="M35.3228 91.1288H29.7422V96.7095H35.3228V91.1288Z" fill="black"/>
<path d="M40.9029 91.1288H35.3223V96.7095H40.9029V91.1288Z" fill="black"/>
<path d="M52.065 91.1288H46.4844V96.7095H52.065V91.1288Z" fill="black"/>
<path d="M63.2262 91.1288H57.6455V96.7095H63.2262V91.1288Z" fill="black"/>
<path d="M68.8062 91.1288H63.2256V96.7095H68.8062V91.1288Z" fill="black"/>
<path d="M74.3873 91.1288H68.8066V96.7095H74.3873V91.1288Z" fill="black"/>
<path d="M79.9674 91.1288H74.3867V96.7095H79.9674V91.1288Z" fill="black"/>
<path d="M85.5484 91.1288H79.9678V96.7095H85.5484V91.1288Z" fill="black"/>
<path d="M96.7095 91.1288H91.1289V96.7095H96.7095V91.1288Z" fill="black"/>
<path d="M107.871 91.1288H102.29V96.7095H107.871V91.1288Z" fill="black"/>
<path d="M146.935 91.1288H141.354V96.7095H146.935V91.1288Z" fill="black"/>
<path d="M158.096 91.1288H152.516V96.7095H158.096V91.1288Z" fill="black"/>
<path d="M169.258 91.1288H163.678V96.7095H169.258V91.1288Z" fill="black"/>
<path d="M174.838 91.1288H169.258V96.7095H174.838V91.1288Z" fill="black"/>
<path d="M40.9029 96.7092H35.3223V102.29H40.9029V96.7092Z" fill="black"/>
<path d="M57.6451 96.7092H52.0645V102.29H57.6451V96.7092Z" fill="black"/>
<path d="M63.2262 96.7092H57.6455V102.29H63.2262V96.7092Z" fill="black"/>
<path d="M74.3873 96.7092H68.8066V102.29H74.3873V96.7092Z" fill="black"/>
<path d="M85.5484 96.7092H79.9678V102.29H85.5484V96.7092Z" fill="black"/>
<path d="M91.1295 96.7092H85.5488V102.29H91.1295V96.7092Z" fill="black"/>
<path d="M102.291 96.7092H96.71V102.29H102.291V96.7092Z" fill="black"/>
<path d="M107.871 96.7092H102.29V102.29H107.871V96.7092Z" fill="black"/>
<path d="M113.452 96.7092H107.871V102.29H113.452V96.7092Z" fill="black"/>
<path d="M119.032 96.7092H113.451V102.29H119.032V96.7092Z" fill="black"/>
<path d="M130.194 96.7092H124.613V102.29H130.194V96.7092Z" fill="black"/>
<path d="M135.774 96.7092H130.193V102.29H135.774V96.7092Z" fill="black"/>
<path d="M158.096 96.7092H152.516V102.29H158.096V96.7092Z" fill="black"/>
<path d="M169.258 96.7092H163.678V102.29H169.258V96.7092Z" fill="black"/>
<path d="M24.1607 102.291H18.5801V107.871H24.1607V102.291Z" fill="black"/>
<path d="M35.3228 102.291H29.7422V107.871H35.3228V102.291Z" fill="black"/>
<path d="M40.9029 102.291H35.3223V107.871H40.9029V102.291Z" fill="black"/>
<path d="M52.065 102.291H46.4844V107.871H52.065V102.291Z" fill="black"/>
<path d="M68.8062 102.291H63.2256V107.871H68.8062V102.291Z" fill="black"/>
<path d="M79.9674 102.291H74.3867V107.871H79.9674V102.291Z" fill="black"/>
<path d="M124.613 102.291H119.032V107.871H124.613V102.291Z" fill="black"/>
<path d="M130.194 102.291H124.613V107.871H130.194V102.291Z" fill="black"/>
<path d="M135.774 102.291H130.193V107.871H135.774V102.291Z" fill="black"/>
<path d="M141.355 102.291H135.774V107.871H141.355V102.291Z" fill="black"/>
<path d="M146.935 102.291H141.354V107.871H146.935V102.291Z" fill="black"/>
<path d="M158.096 102.291H152.516V107.871H158.096V102.291Z" fill="black"/>
<path d="M169.258 102.291H163.678V107.871H169.258V102.291Z" fill="black"/>
<path d="M174.838 102.291H169.258V107.871H174.838V102.291Z" fill="black"/>
<path d="M24.1607 107.871H18.5801V113.452H24.1607V107.871Z" fill="black"/>
<path d="M35.3228 107.871H29.7422V113.452H35.3228V107.871Z" fill="black"/>
<path d="M57.6451 107.871H52.0645V113.452H57.6451V107.871Z" fill="black"/>
<path d="M63.2262 107.871H57.6455V113.452H63.2262V107.871Z" fill="black"/>
<path d="M74.3873 107.871H68.8066V113.452H74.3873V107.871Z" fill="black"/>
<path d="M79.9674 107.871H74.3867V113.452H79.9674V107.871Z" fill="black"/>
<path d="M119.032 107.871H113.451V113.452H119.032V107.871Z" fill="black"/>
<path d="M130.194 107.871H124.613V113.452H130.194V107.871Z" fill="black"/>
<path d="M135.774 107.871H130.193V113.452H135.774V107.871Z" fill="black"/>
<path d="M141.355 107.871H135.774V113.452H141.355V107.871Z" fill="black"/>
<path d="M158.096 107.871H152.516V113.452H158.096V107.871Z" fill="black"/>
<path d="M163.677 107.871H158.097V113.452H163.677V107.871Z" fill="black"/>
<path d="M174.838 107.871H169.258V113.452H174.838V107.871Z" fill="black"/>
<path d="M18.5806 113.452H13V119.032H18.5806V113.452Z" fill="black"/>
<path d="M29.7418 113.452H24.1611V119.032H29.7418V113.452Z" fill="black"/>
<path d="M46.484 113.452H40.9033V119.032H46.484V113.452Z" fill="black"/>
<path d="M52.065 113.452H46.4844V119.032H52.065V113.452Z" fill="black"/>
<path d="M57.6451 113.452H52.0645V119.032H57.6451V113.452Z" fill="black"/>
<path d="M63.2262 113.452H57.6455V119.032H63.2262V113.452Z" fill="black"/>
<path d="M74.3873 113.452H68.8066V119.032H74.3873V113.452Z" fill="black"/>
<path d="M119.032 113.452H113.451V119.032H119.032V113.452Z" fill="black"/>
<path d="M141.355 113.452H135.774V119.032H141.355V113.452Z" fill="black"/>
<path d="M169.258 113.452H163.678V119.032H169.258V113.452Z" fill="black"/>
<path d="M174.838 113.452H169.258V119.032H174.838V113.452Z" fill="black"/>
<path d="M24.1607 119.032H18.5801V124.613H24.1607V119.032Z" fill="black"/>
<path d="M46.484 119.032H40.9033V124.613H46.484V119.032Z" fill="black"/>
<path d="M74.3873 119.032H68.8066V124.613H74.3873V119.032Z" fill="black"/>
<path d="M79.9674 119.032H74.3867V124.613H79.9674V119.032Z" fill="black"/>
<path d="M91.1295 119.032H85.5488V124.613H91.1295V119.032Z" fill="black"/>
<path d="M107.871 119.032H102.29V124.613H107.871V119.032Z" fill="black"/>
<path d="M113.452 119.032H107.871V124.613H113.452V119.032Z" fill="black"/>
<path d="M119.032 119.032H113.451V124.613H119.032V119.032Z" fill="black"/>
<path d="M152.516 119.032H146.936V124.613H152.516V119.032Z" fill="black"/>
<path d="M158.096 119.032H152.516V124.613H158.096V119.032Z" fill="black"/>
<path d="M169.258 119.032H163.678V124.613H169.258V119.032Z" fill="black"/>
<path d="M18.5806 124.613H13V130.194H18.5806V124.613Z" fill="black"/>
<path d="M29.7418 124.613H24.1611V130.194H29.7418V124.613Z" fill="black"/>
<path d="M35.3228 124.613H29.7422V130.194H35.3228V124.613Z" fill="black"/>
<path d="M40.9029 124.613H35.3223V130.194H40.9029V124.613Z" fill="black"/>
<path d="M46.484 124.613H40.9033V130.194H46.484V124.613Z" fill="black"/>
<path d="M52.065 124.613H46.4844V130.194H52.065V124.613Z" fill="black"/>
<path d="M85.5484 124.613H79.9678V130.194H85.5484V124.613Z" fill="black"/>
<path d="M91.1295 124.613H85.5488V130.194H91.1295V124.613Z" fill="black"/>
<path d="M102.291 124.613H96.71V130.194H102.291V124.613Z" fill="black"/>
<path d="M107.871 124.613H102.29V130.194H107.871V124.613Z" fill="black"/>
<path d="M113.452 124.613H107.871V130.194H113.452V124.613Z" fill="black"/>
<path d="M130.194 124.613H124.613V130.194H130.194V124.613Z" fill="black"/>
<path d="M135.774 124.613H130.193V130.194H135.774V124.613Z" fill="black"/>
<path d="M141.355 124.613H135.774V130.194H141.355V124.613Z" fill="black"/>
<path d="M146.935 124.613H141.354V130.194H146.935V124.613Z" fill="black"/>
<path d="M152.516 124.613H146.936V130.194H152.516V124.613Z" fill="black"/>
<path d="M63.2262 130.194H57.6455V135.775H63.2262V130.194Z" fill="black"/>
<path d="M68.8062 130.194H63.2256V135.775H68.8062V130.194Z" fill="black"/>
<path d="M79.9674 130.194H74.3867V135.775H79.9674V130.194Z" fill="black"/>
<path d="M85.5484 130.194H79.9678V135.775H85.5484V130.194Z" fill="black"/>
<path d="M91.1295 130.194H85.5488V135.775H91.1295V130.194Z" fill="black"/>
<path d="M96.7095 130.194H91.1289V135.775H96.7095V130.194Z" fill="black"/>
<path d="M102.291 130.194H96.71V135.775H102.291V130.194Z" fill="black"/>
<path d="M107.871 130.194H102.29V135.775H107.871V130.194Z" fill="black"/>
<path d="M124.613 130.194H119.032V135.775H124.613V130.194Z" fill="black"/>
<path d="M130.194 130.194H124.613V135.775H130.194V130.194Z" fill="black"/>
<path d="M152.516 130.194H146.936V135.775H152.516V130.194Z" fill="black"/>
<path d="M163.677 130.194H158.097V135.775H163.677V130.194Z" fill="black"/>
<path d="M169.258 130.194H163.678V135.775H169.258V130.194Z" fill="black"/>
<path d="M174.838 130.194H169.258V135.775H174.838V130.194Z" fill="black"/>
<path d="M18.5806 135.774H13V141.355H18.5806V135.774Z" fill="black"/>
<path d="M24.1607 135.774H18.5801V141.355H24.1607V135.774Z" fill="black"/>
<path d="M29.7418 135.774H24.1611V141.355H29.7418V135.774Z" fill="black"/>
<path d="M35.3228 135.774H29.7422V141.355H35.3228V135.774Z" fill="black"/>
<path d="M40.9029 135.774H35.3223V141.355H40.9029V135.774Z" fill="black"/>
<path d="M46.484 135.774H40.9033V141.355H46.484V135.774Z" fill="black"/>
<path d="M52.065 135.774H46.4844V141.355H52.065V135.774Z" fill="black"/>
<path d="M63.2262 135.774H57.6455V141.355H63.2262V135.774Z" fill="black"/>
<path d="M74.3873 135.774H68.8066V141.355H74.3873V135.774Z" fill="black"/>
<path d="M79.9674 135.774H74.3867V141.355H79.9674V135.774Z" fill="black"/>
<path d="M85.5484 135.774H79.9678V141.355H85.5484V135.774Z" fill="black"/>
<path d="M96.7095 135.774H91.1289V141.355H96.7095V135.774Z" fill="black"/>
<path d="M107.871 135.774H102.29V141.355H107.871V135.774Z" fill="black"/>
<path d="M113.452 135.774H107.871V141.355H113.452V135.774Z" fill="black"/>
<path d="M124.613 135.774H119.032V141.355H124.613V135.774Z" fill="black"/>
<path d="M130.194 135.774H124.613V141.355H130.194V135.774Z" fill="black"/>
<path d="M141.355 135.774H135.774V141.355H141.355V135.774Z" fill="black"/>
<path d="M152.516 135.774H146.936V141.355H152.516V135.774Z" fill="black"/>
<path d="M158.096 135.774H152.516V141.355H158.096V135.774Z" fill="black"/>
<path d="M169.258 135.774H163.678V141.355H169.258V135.774Z" fill="black"/>
<path d="M174.838 135.774H169.258V141.355H174.838V135.774Z" fill="black"/>
<path d="M18.5806 141.355H13V146.935H18.5806V141.355Z" fill="black"/>
<path d="M52.065 141.355H46.4844V146.935H52.065V141.355Z" fill="black"/>
<path d="M63.2262 141.355H57.6455V146.935H63.2262V141.355Z" fill="black"/>
<path d="M68.8062 141.355H63.2256V146.935H68.8062V141.355Z" fill="black"/>
<path d="M85.5484 141.355H79.9678V146.935H85.5484V141.355Z" fill="black"/>
<path d="M91.1295 141.355H85.5488V146.935H91.1295V141.355Z" fill="black"/>
<path d="M102.291 141.355H96.71V146.935H102.291V141.355Z" fill="black"/>
<path d="M113.452 141.355H107.871V146.935H113.452V141.355Z" fill="black"/>
<path d="M119.032 141.355H113.451V146.935H119.032V141.355Z" fill="black"/>
<path d="M130.194 141.355H124.613V146.935H130.194V141.355Z" fill="black"/>
<path d="M152.516 141.355H146.936V146.935H152.516V141.355Z" fill="black"/>
<path d="M158.096 141.355H152.516V146.935H158.096V141.355Z" fill="black"/>
<path d="M169.258 141.355H163.678V146.935H169.258V141.355Z" fill="black"/>
<path d="M18.5806 146.935H13V152.516H18.5806V146.935Z" fill="black"/>
<path d="M29.7418 146.935H24.1611V152.516H29.7418V146.935Z" fill="black"/>
<path d="M35.3228 146.935H29.7422V152.516H35.3228V146.935Z" fill="black"/>
<path d="M40.9029 146.935H35.3223V152.516H40.9029V146.935Z" fill="black"/>
<path d="M52.065 146.935H46.4844V152.516H52.065V146.935Z" fill="black"/>
<path d="M63.2262 146.935H57.6455V152.516H63.2262V146.935Z" fill="black"/>
<path d="M74.3873 146.935H68.8066V152.516H74.3873V146.935Z" fill="black"/>
<path d="M79.9674 146.935H74.3867V152.516H79.9674V146.935Z" fill="black"/>
<path d="M85.5484 146.935H79.9678V152.516H85.5484V146.935Z" fill="black"/>
<path d="M102.291 146.935H96.71V152.516H102.291V146.935Z" fill="black"/>
<path d="M113.452 146.935H107.871V152.516H113.452V146.935Z" fill="black"/>
<path d="M119.032 146.935H113.451V152.516H119.032V146.935Z" fill="black"/>
<path d="M130.194 146.935H124.613V152.516H130.194V146.935Z" fill="black"/>
<path d="M135.774 146.935H130.193V152.516H135.774V146.935Z" fill="black"/>
<path d="M141.355 146.935H135.774V152.516H141.355V146.935Z" fill="black"/>
<path d="M146.935 146.935H141.354V152.516H146.935V146.935Z" fill="black"/>
<path d="M152.516 146.935H146.936V152.516H152.516V146.935Z" fill="black"/>
<path d="M169.258 146.935H163.678V152.516H169.258V146.935Z" fill="black"/>
<path d="M18.5806 152.516H13V158.097H18.5806V152.516Z" fill="black"/>
<path d="M29.7418 152.516H24.1611V158.097H29.7418V152.516Z" fill="black"/>
<path d="M35.3228 152.516H29.7422V158.097H35.3228V152.516Z" fill="black"/>
<path d="M40.9029 152.516H35.3223V158.097H40.9029V152.516Z" fill="black"/>
<path d="M52.065 152.516H46.4844V158.097H52.065V152.516Z" fill="black"/>
<path d="M68.8062 152.516H63.2256V158.097H68.8062V152.516Z" fill="black"/>
<path d="M79.9674 152.516H74.3867V158.097H79.9674V152.516Z" fill="black"/>
<path d="M96.7095 152.516H91.1289V158.097H96.7095V152.516Z" fill="black"/>
<path d="M113.452 152.516H107.871V158.097H113.452V152.516Z" fill="black"/>
<path d="M119.032 152.516H113.451V158.097H119.032V152.516Z" fill="black"/>
<path d="M124.613 152.516H119.032V158.097H124.613V152.516Z" fill="black"/>
<path d="M130.194 152.516H124.613V158.097H130.194V152.516Z" fill="black"/>
<path d="M146.935 152.516H141.354V158.097H146.935V152.516Z" fill="black"/>
<path d="M152.516 152.516H146.936V158.097H152.516V152.516Z" fill="black"/>
<path d="M163.677 152.516H158.097V158.097H163.677V152.516Z" fill="black"/>
<path d="M169.258 152.516H163.678V158.097H169.258V152.516Z" fill="black"/>
<path d="M174.838 152.516H169.258V158.097H174.838V152.516Z" fill="black"/>
<path d="M18.5806 158.097H13V163.678H18.5806V158.097Z" fill="black"/>
<path d="M29.7418 158.097H24.1611V163.678H29.7418V158.097Z" fill="black"/>
<path d="M35.3228 158.097H29.7422V163.678H35.3228V158.097Z" fill="black"/>
<path d="M40.9029 158.097H35.3223V163.678H40.9029V158.097Z" fill="black"/>
<path d="M52.065 158.097H46.4844V163.678H52.065V158.097Z" fill="black"/>
<path d="M63.2262 158.097H57.6455V163.678H63.2262V158.097Z" fill="black"/>
<path d="M68.8062 158.097H63.2256V163.678H68.8062V158.097Z" fill="black"/>
<path d="M74.3873 158.097H68.8066V163.678H74.3873V158.097Z" fill="black"/>
<path d="M91.1295 158.097H85.5488V163.678H91.1295V158.097Z" fill="black"/>
<path d="M96.7095 158.097H91.1289V163.678H96.7095V158.097Z" fill="black"/>
<path d="M113.452 158.097H107.871V163.678H113.452V158.097Z" fill="black"/>
<path d="M124.613 158.097H119.032V163.678H124.613V158.097Z" fill="black"/>
<path d="M135.774 158.097H130.193V163.678H135.774V158.097Z" fill="black"/>
<path d="M152.516 158.097H146.936V163.678H152.516V158.097Z" fill="black"/>
<path d="M158.096 158.097H152.516V163.678H158.096V158.097Z" fill="black"/>
<path d="M174.838 158.097H169.258V163.678H174.838V158.097Z" fill="black"/>
<path d="M18.5806 163.677H13V169.258H18.5806V163.677Z" fill="black"/>
<path d="M52.065 163.677H46.4844V169.258H52.065V163.677Z" fill="black"/>
<path d="M63.2262 163.677H57.6455V169.258H63.2262V163.677Z" fill="black"/>
<path d="M74.3873 163.677H68.8066V169.258H74.3873V163.677Z" fill="black"/>
<path d="M79.9674 163.677H74.3867V169.258H79.9674V163.677Z" fill="black"/>
<path d="M91.1295 163.677H85.5488V169.258H91.1295V163.677Z" fill="black"/>
<path d="M102.291 163.677H96.71V169.258H102.291V163.677Z" fill="black"/>
<path d="M107.871 163.677H102.29V169.258H107.871V163.677Z" fill="black"/>
<path d="M113.452 163.677H107.871V169.258H113.452V163.677Z" fill="black"/>
<path d="M119.032 163.677H113.451V169.258H119.032V163.677Z" fill="black"/>
<path d="M124.613 163.677H119.032V169.258H124.613V163.677Z" fill="black"/>
<path d="M130.194 163.677H124.613V169.258H130.194V163.677Z" fill="black"/>
<path d="M169.258 163.677H163.678V169.258H169.258V163.677Z" fill="black"/>
<path d="M18.5806 169.258H13V174.838H18.5806V169.258Z" fill="black"/>
<path d="M24.1607 169.258H18.5801V174.838H24.1607V169.258Z" fill="black"/>
<path d="M29.7418 169.258H24.1611V174.838H29.7418V169.258Z" fill="black"/>
<path d="M35.3228 169.258H29.7422V174.838H35.3228V169.258Z" fill="black"/>
<path d="M40.9029 169.258H35.3223V174.838H40.9029V169.258Z" fill="black"/>
<path d="M46.484 169.258H40.9033V174.838H46.484V169.258Z" fill="black"/>
<path d="M52.065 169.258H46.4844V174.838H52.065V169.258Z" fill="black"/>
<path d="M63.2262 169.258H57.6455V174.838H63.2262V169.258Z" fill="black"/>
<path d="M68.8062 169.258H63.2256V174.838H68.8062V169.258Z" fill="black"/>
<path d="M74.3873 169.258H68.8066V174.838H74.3873V169.258Z" fill="black"/>
<path d="M79.9674 169.258H74.3867V174.838H79.9674V169.258Z" fill="black"/>
<path d="M102.291 169.258H96.71V174.838H102.291V169.258Z" fill="black"/>
<path d="M107.871 169.258H102.29V174.838H107.871V169.258Z" fill="black"/>
<path d="M113.452 169.258H107.871V174.838H113.452V169.258Z" fill="black"/>
<path d="M119.032 169.258H113.451V174.838H119.032V169.258Z" fill="black"/>
<path d="M130.194 169.258H124.613V174.838H130.194V169.258Z" fill="black"/>
<path d="M141.355 169.258H135.774V174.838H141.355V169.258Z" fill="black"/>
<path d="M146.935 169.258H141.354V174.838H146.935V169.258Z" fill="black"/>
<path d="M152.516 169.258H146.936V174.838H152.516V169.258Z" fill="black"/>
<path d="M158.096 169.258H152.516V174.838H158.096V169.258Z" fill="black"/>
<path d="M169.258 169.258H163.678V174.838H169.258V169.258Z" fill="black"/>
<path d="M174.838 169.258H169.258V174.838H174.838V169.258Z" fill="black"/>
<g clip-path="url(#clip0)">
<path d="M102.32 82.5664H85.5199C82.4273 82.5664 79.9199 85.0737 79.9199 88.1664V104.966C79.9199 104.973 79.9203 104.979 79.9203 104.986C79.9206 105.065 79.9227 105.144 79.9264 105.223C79.9283 105.265 79.9315 105.308 79.9345 105.35C79.9373 105.391 79.9401 105.431 79.9437 105.472C79.9485 105.524 79.9541 105.576 79.9602 105.628C79.9633 105.654 79.9667 105.68 79.97 105.706C79.9783 105.768 79.9873 105.83 79.9975 105.892L79.9987 105.899C80.443 108.548 82.7451 110.566 85.5199 110.566H102.32C102.408 110.566 102.495 110.564 102.582 110.56C102.617 110.558 102.652 110.555 102.687 110.553C102.736 110.55 102.784 110.546 102.832 110.542C102.912 110.535 102.991 110.525 103.07 110.515C103.126 110.507 103.183 110.499 103.238 110.49C103.25 110.488 103.262 110.486 103.274 110.484C105.912 110.031 107.92 107.734 107.92 104.966V88.1664C107.92 85.0737 105.413 82.5664 102.32 82.5664Z" fill="#50B674"/>
<path d="M96.8984 93.8948C97.0764 93.8948 97.2802 93.8948 97.4584 93.9203C96.9492 91.553 94.4039 89.7966 91.5275 89.7966C88.2947 89.7966 85.6475 91.9858 85.6475 94.7858C85.6475 96.4149 86.5129 97.7384 87.9892 98.7566L87.4038 100.513L89.4655 99.4949C90.2038 99.6475 90.7892 99.8004 91.5275 99.8004C91.7055 99.8004 91.8838 99.7749 92.0875 99.7749C91.9855 99.3929 91.9092 98.9858 91.9092 98.5529C91.9094 95.9821 94.0984 93.8948 96.8984 93.8948ZM93.6657 92.1638C93.786 92.1638 93.9051 92.1875 94.0163 92.2336C94.1275 92.2796 94.2285 92.3471 94.3136 92.4322C94.3986 92.5173 94.4661 92.6183 94.5121 92.7295C94.5582 92.8407 94.5819 92.9598 94.5818 93.0801V93.082C94.5817 93.2023 94.558 93.3214 94.5118 93.4325C94.4657 93.5437 94.3981 93.6446 94.313 93.7296C94.2278 93.8146 94.1267 93.882 94.0155 93.928C93.9043 93.9739 93.7852 93.9975 93.6648 93.9974C93.5445 93.9973 93.4253 93.9735 93.3142 93.9273C93.2031 93.8812 93.1021 93.8136 93.0171 93.7284C92.932 93.6432 92.8646 93.5421 92.8187 93.4309C92.7727 93.3197 92.7491 93.2005 92.7492 93.0801C92.7493 92.8371 92.8459 92.6041 93.0177 92.4322C93.1896 92.2604 93.4227 92.1639 93.6657 92.1638V92.1638ZM89.5676 94.0221C89.3246 94.0221 89.0915 93.9255 88.9197 93.7537C88.7478 93.5818 88.6513 93.3488 88.6513 93.1058C88.6513 92.8627 88.7478 92.6297 88.9197 92.4578C89.0915 92.286 89.3246 92.1895 89.5676 92.1895C89.8106 92.1895 90.0437 92.286 90.2155 92.4578C90.3874 92.6297 90.4839 92.8627 90.4839 93.1058C90.4839 93.3488 90.3874 93.5818 90.2155 93.7537C90.0437 93.9255 89.8106 94.0221 89.5676 94.0221Z" fill="white"/>
<path d="M102.191 98.5023C102.191 96.1605 99.8491 94.2515 97.2019 94.2515C94.4019 94.2515 92.2129 96.1606 92.2129 98.5023C92.2129 100.844 94.4019 102.753 97.2019 102.753C97.7874 102.753 98.3728 102.601 98.9582 102.448L100.562 103.338L100.129 101.862C101.326 100.971 102.191 99.8006 102.191 98.5023V98.5023ZM95.6745 97.8152C95.5902 97.8164 95.5064 97.8009 95.4281 97.7694C95.3498 97.738 95.2785 97.6913 95.2184 97.6321C95.1583 97.5729 95.1106 97.5023 95.078 97.4245C95.0455 97.3466 95.0287 97.2631 95.0287 97.1787C95.0287 97.0944 95.0455 97.0108 95.0781 96.933C95.1107 96.8552 95.1584 96.7846 95.2185 96.7254C95.2786 96.6662 95.3499 96.6195 95.4282 96.5881C95.5065 96.5567 95.5903 96.5412 95.6747 96.5424C95.8418 96.5449 96.0013 96.6131 96.1186 96.7322C96.2359 96.8512 96.3016 97.0117 96.3016 97.1789C96.3016 97.346 96.2358 97.5065 96.1185 97.6255C96.0011 97.7446 95.8417 97.8127 95.6745 97.8152ZM98.9074 97.866C98.823 97.8672 98.7393 97.8517 98.661 97.8203C98.5827 97.7888 98.5114 97.7421 98.4513 97.6829C98.3912 97.6237 98.3435 97.5531 98.3109 97.4753C98.2784 97.3974 98.2616 97.3139 98.2616 97.2295C98.2616 97.1452 98.2784 97.0616 98.311 96.9838C98.3436 96.906 98.3913 96.8354 98.4514 96.7762C98.5115 96.717 98.5828 96.6703 98.6611 96.6389C98.7394 96.6075 98.8232 96.592 98.9076 96.5932C99.0747 96.5957 99.2341 96.6639 99.3515 96.783C99.4688 96.9021 99.5345 97.0625 99.5345 97.2297C99.5345 97.3968 99.4687 97.5573 99.3514 97.6763C99.234 97.7954 99.0746 97.8635 98.9074 97.866Z" fill="white"/>
</g>
<defs>
<clipPath id="clip0">
<rect width="28" height="28" fill="white" transform="translate(79.9199 82.5664)"/>
</clipPath>
</defs>
</svg>
