<svg width="1081" height="1198" viewBox="0 0 1081 1198" fill="none" xmlns="http://www.w3.org/2000/svg">
<g clip-path="url(#clip0)">
<rect width="1197" height="1080" transform="translate(1080.5 0.5) rotate(90)" fill="white"/>
<path opacity="0.2" d="M-714.7 914.71C-714.7 1507.21 -87.18 1987.52 686.9 1987.52C1460.98 1987.52 2088.5 1507.21 2088.5 914.71C2088.5 322.213 1460.98 -158.102 686.9 -158.102C-87.1819 -158.102 -714.7 322.212 -714.7 914.71Z" fill="url(#paint0_radial)"/>
<path opacity="0.2" d="M-865.001 49.7627C-865.001 515.209 -371.801 892.526 236.599 892.526C844.999 892.526 1338.2 515.209 1338.2 49.7628C1338.2 -415.683 844.996 -793 236.599 -793C-371.798 -793 -865.001 -415.683 -865.001 49.7627Z" fill="url(#paint1_radial)"/>
<path opacity="0.2" d="M-804.7 965.954C-804.7 1359.92 -387.25 1679.29 127.7 1679.29C642.65 1679.29 1060.1 1359.92 1060.1 965.954C1060.1 571.992 642.65 252.617 127.7 252.617C-387.25 252.617 -804.7 571.989 -804.7 965.954Z" fill="url(#paint2_radial)"/>
<path opacity="0.2" d="M149.999 253.172C149.999 683.497 605.594 1032.34 1167.6 1032.34C1729.6 1032.34 2185.2 683.497 2185.2 253.172C2185.2 -177.153 1729.6 -526 1167.6 -526C605.594 -526 149.999 -177.152 149.999 253.172Z" fill="url(#paint3_radial)"/>
</g>
<defs>
<radialGradient id="paint0_radial" cx="0" cy="0" r="1" gradientUnits="userSpaceOnUse" gradientTransform="translate(686.9 914.71) rotate(-180) scale(1401.6 1072.81)">
<stop stop-color="#107C10"/>
<stop offset="1" stop-color="#C4C4C4" stop-opacity="0"/>
</radialGradient>
<radialGradient id="paint1_radial" cx="0" cy="0" r="1" gradientUnits="userSpaceOnUse" gradientTransform="translate(236.599 49.7628) rotate(-180) scale(1101.6 842.763)">
<stop stop-color="#0078D4"/>
<stop offset="1" stop-color="#C4C4C4" stop-opacity="0"/>
</radialGradient>
<radialGradient id="paint2_radial" cx="0" cy="0" r="1" gradientUnits="userSpaceOnUse" gradientTransform="translate(127.7 965.954) rotate(-180) scale(932.4 713.337)">
<stop stop-color="#FFB900" stop-opacity="0.75"/>
<stop offset="1" stop-color="#C4C4C4" stop-opacity="0"/>
</radialGradient>
<radialGradient id="paint3_radial" cx="0" cy="0" r="1" gradientUnits="userSpaceOnUse" gradientTransform="translate(1167.6 253.172) rotate(-180) scale(1017.6 779.172)">
<stop stop-color="#D83B01" stop-opacity="0.75"/>
<stop offset="1" stop-color="#C4C4C4" stop-opacity="0"/>
</radialGradient>
<clipPath id="clip0">
<rect width="1197" height="1080" fill="white" transform="translate(1080.5 0.5) rotate(90)"/>
</clipPath>
</defs>
</svg>
