<svg width="283" height="10" viewBox="0 0 283 10" fill="none" xmlns="http://www.w3.org/2000/svg">
<path d="M5.07861 1.17701H8.63037V8.569H7.92723V7.86586H5.78175V8.64111H5.07861V1.17701ZM4.69098 7.64951L4.13207 8.24447C3.67233 7.81778 3.2231 7.41062 2.78439 7.02299C2.20144 7.78623 1.49079 8.43378 0.652428 8.96564C0.532233 8.77333 0.388 8.55998 0.219727 8.3256C1.03705 7.8328 1.71165 7.24084 2.24351 6.54972C1.70864 6.08998 1.19331 5.66328 0.697502 5.26965C0.949911 4.43729 1.17227 3.56889 1.36458 2.66442H0.255785V1.97931H1.50431C1.62451 1.37232 1.73118 0.750315 1.82433 0.113281L2.58156 0.221457C2.47939 0.834451 2.37122 1.4204 2.25703 1.97931H4.24926V2.64639C4.07198 4.28405 3.72191 5.54309 3.19906 6.42352C3.67082 6.80514 4.16813 7.2138 4.69098 7.64951ZM7.92723 1.84409H5.78175V7.2168H7.92723V1.84409ZM3.53711 2.66442H2.10829C1.91598 3.52381 1.70714 4.3171 1.48177 5.04428C1.84536 5.33275 2.22999 5.64075 2.63565 5.96828C3.11042 5.14194 3.4109 4.04065 3.53711 2.66442Z" fill="white"/>
<path d="M18.4745 7.84797C18.2462 8.09437 18.0569 8.31973 17.9066 8.52406C16.4462 8.06131 15.2413 7.24248 14.2918 6.06758V8.98381H13.6066V6.05856C12.7623 7.03515 11.5543 7.89605 9.98277 8.64125C9.83854 8.46096 9.65825 8.26865 9.44189 8.06432C10.8602 7.52044 12.0126 6.8173 12.899 5.9549H9.64022V5.30584H13.6066V4.33226H11.2178V4.68383H10.5327V0.537109H17.3657V4.68383H16.6806V4.33226H14.2918V5.30584H18.2762V5.9549H14.8957C15.7732 6.8834 16.9661 7.51443 18.4745 7.84797ZM14.2918 3.71927H16.6806V2.72766H14.2918V3.71927ZM16.6806 1.1501H14.2918V2.14171H16.6806V1.1501ZM11.2178 3.71927H13.6066V2.72766H11.2178V3.71927ZM11.2178 2.14171H13.6066V1.1501H11.2178V2.14171Z" fill="white"/>
<path d="M21.1607 2.70979C21.8698 1.95256 22.4498 1.07815 22.9005 0.0865397L23.6037 0.248803C23.4714 0.531261 23.3332 0.8017 23.189 1.06012H27.2906V1.64607L26.6686 2.94417C26.4463 2.82999 26.2329 2.72482 26.0286 2.62866L26.4974 1.67311H22.8284C22.4919 2.21399 22.1283 2.70078 21.7376 3.13348C21.5694 3.00727 21.377 2.86605 21.1607 2.70979ZM20.8812 6.02717H21.5664V7.51459C21.5664 7.8932 21.7707 8.08251 22.1793 8.08251H24.1265C24.5712 8.08251 24.8327 7.90822 24.9108 7.55966C24.9889 7.26518 25.052 6.91962 25.1001 6.52298C25.3164 6.61312 25.5478 6.70026 25.7942 6.7844C25.7161 7.2171 25.644 7.55966 25.5779 7.81207C25.4336 8.41905 25.0009 8.72255 24.2798 8.72255H22.0441C21.2689 8.72255 20.8812 8.34994 20.8812 7.60473V6.02717ZM20.6919 0.0234375L21.35 0.329934C21.1066 0.741602 20.8602 1.13674 20.6108 1.51536V5.54038H19.9257V2.49344C19.6763 2.82698 19.4239 3.1455 19.1685 3.44899C19.0242 3.28072 18.856 3.10043 18.6636 2.90811C19.4569 2.05473 20.133 1.09317 20.6919 0.0234375ZM24.1986 2.20497H24.8837V4.3775C24.8837 5.08665 24.5322 5.44122 23.829 5.44122C23.6067 5.44122 23.3062 5.43822 22.9276 5.43221C22.8975 5.22788 22.8524 4.98448 22.7923 4.70202C23.1169 4.74409 23.3993 4.76513 23.6397 4.76513C24.0123 4.76513 24.1986 4.5638 24.1986 4.16115V2.20497ZM25.3074 3.55717L25.7672 3.07939C26.3681 3.54214 26.9781 4.05598 27.5971 4.62089L27.0923 5.1798C26.4853 4.57281 25.8904 4.03194 25.3074 3.55717ZM22.8464 2.92614L23.3873 3.3318C22.8765 3.92076 22.2875 4.53075 21.6204 5.16177C21.4822 5.01754 21.3139 4.85828 21.1156 4.68399C21.7166 4.16115 22.2935 3.5752 22.8464 2.92614ZM25.659 6.03619L26.1999 5.64856C26.7648 6.28559 27.2696 6.90159 27.7143 7.49656L27.1374 7.94729C26.6506 7.26218 26.1578 6.62514 25.659 6.03619ZM19.7003 5.95506L20.3584 6.18042C20.0699 6.97972 19.7754 7.68887 19.475 8.30787C19.2826 8.22374 19.0603 8.1366 18.8079 8.04645C19.1865 7.35533 19.484 6.6582 19.7003 5.95506ZM22.3236 6.00013L22.7833 5.56743C23.2821 5.95806 23.7479 6.36672 24.1806 6.79342L23.6577 7.28922C23.2431 6.83248 22.7984 6.40278 22.3236 6.00013Z" fill="white"/>
<path d="M28.0661 3.16848H30.8156C30.9658 2.92809 31.1025 2.68169 31.2257 2.42928H28.6611V1.85234H31.4871C31.5863 1.61796 31.6749 1.37908 31.7531 1.13568C30.6863 1.17174 29.6467 1.20029 28.634 1.22132C28.598 1.02901 28.5559 0.82468 28.5078 0.608329C31.3745 0.566261 33.9016 0.476115 36.0891 0.337891L36.1973 0.950885C34.9352 1.01098 33.7062 1.06356 32.5103 1.10864C32.4292 1.35804 32.339 1.60594 32.2399 1.85234H36.1612V2.42928H31.9829C31.8628 2.67868 31.7335 2.92508 31.5953 3.16848H36.8463V3.74541H31.2347C31.0845 3.97378 30.9237 4.19915 30.7525 4.42151H35.7285V8.94685H35.0795V8.59528H30.5631V8.94685H29.9141V5.41312C29.4423 5.91493 28.9165 6.39872 28.3365 6.86447C28.2163 6.67817 28.0721 6.47384 27.9038 6.25148C28.9285 5.50627 29.7714 4.67092 30.4324 3.74541H28.0661V3.16848ZM30.5631 8.01834H35.0795V7.37831H30.5631V8.01834ZM35.0795 4.99845H30.5631V5.62947H35.0795V4.99845ZM30.5631 6.8194H35.0795V6.18838H30.5631V6.8194Z" fill="white"/>
<path d="M41.1461 1.82651C41.6269 2.53566 42.0776 3.27486 42.4983 4.04411C42.2699 4.15228 42.0386 4.27248 41.8042 4.40469C41.699 4.18233 41.5908 3.96298 41.4797 3.74662C40.1846 3.87283 38.9556 3.99603 37.7927 4.11622L37.4681 3.36801C37.8167 3.18171 38.1172 2.88423 38.3696 2.47556C38.601 2.127 38.8278 1.73636 39.0502 1.30366H37.369V0.63658H42.5434V1.30366H39.9021C39.4544 2.06389 39.0006 2.75502 38.5409 3.37702C39.3973 3.31392 40.2687 3.2358 41.1551 3.14264C40.9568 2.79708 40.7495 2.46054 40.5331 2.13301L41.1461 1.82651ZM37.4321 5.2701H39.5505V4.15228H40.2717V5.2701H42.336V5.93718H40.2717V7.52375C40.9808 7.4336 41.711 7.33745 42.4622 7.23528C42.4622 7.44562 42.4743 7.68 42.4983 7.93842C40.7975 8.14877 39.0878 8.38014 37.369 8.63255L37.1616 7.87532C37.9279 7.79719 38.7242 7.70855 39.5505 7.60939V5.93718H37.4321V5.2701ZM44.9863 0.0957031H45.7346V7.72207C45.7346 8.47329 45.371 8.8489 44.6438 8.8489C44.3974 8.8489 43.9587 8.8459 43.3276 8.83989C43.2916 8.59349 43.2465 8.32305 43.1924 8.02857C43.7213 8.07665 44.13 8.10069 44.4184 8.10069C44.797 8.1067 44.9863 7.91138 44.9863 7.51474V0.0957031ZM43.0302 1.06928H43.7603V6.8116H43.0302V1.06928Z" fill="white"/>
<path d="M50.0527 8.046L52.4055 8.10009L55.3442 8.00994C55.2781 8.20826 55.194 8.44565 55.0918 8.7221H52.1801L49.9715 8.68604C48.9619 8.66801 48.2437 8.31944 47.817 7.64034C47.5706 7.86871 47.21 8.27136 46.7353 8.8483L46.3657 8.10009C46.8975 7.58625 47.2822 7.21816 47.5195 6.9958V3.96237H46.4468V3.29529H48.2137V7.14003C48.5833 7.72898 49.1963 8.03097 50.0527 8.046ZM49.5388 3.28628L49.9715 2.81752C50.5695 3.29529 51.2952 3.89176 52.1486 4.60692C52.7255 3.92782 53.1867 3.14805 53.5323 2.26763L54.2174 2.59215C53.8057 3.52667 53.2979 4.35 52.6939 5.06216C53.343 5.60905 54.0582 6.21603 54.8394 6.88311L54.2805 7.48709C53.5083 6.78395 52.8141 6.15744 52.1981 5.60754C51.3808 6.42186 50.4132 7.06641 49.2954 7.54118C49.1812 7.3669 49.034 7.16557 48.8537 6.9372C49.9595 6.47745 50.8955 5.87348 51.6618 5.12526C50.7783 4.34099 50.0707 3.72799 49.5388 3.28628ZM49.034 1.5104H55.1279V2.14142H49.034V1.5104ZM47.4925 0.266381C47.799 0.638985 48.2197 1.20691 48.7546 1.97014L48.1145 2.42087C47.6277 1.65764 47.2281 1.06868 46.9156 0.65401L47.4925 0.266381ZM51.2155 0.347512L51.8376 0.0410156C52.0239 0.323473 52.2432 0.693073 52.4956 1.14981L51.8466 1.48335C51.6182 1.03863 51.4079 0.660019 51.2155 0.347512Z" fill="white"/>
<path d="M57.0752 3.30386H61.2489V6.6573H57.7603V7.26128H57.0752V3.30386ZM57.9586 0.0585938L58.7068 0.283959C58.5505 0.656564 58.3823 1.01414 58.202 1.3567H63.8722C63.8301 3.36396 63.782 5.13082 63.7279 6.6573C63.7039 7.43255 63.5657 7.97043 63.3133 8.27091C63.0248 8.61948 62.529 8.79677 61.8259 8.80278C61.3511 8.80278 60.708 8.79076 59.8967 8.76672C59.8667 8.54436 59.8186 8.27692 59.7525 7.96442C60.5157 8.03052 61.1738 8.06358 61.7267 8.06358C62.1894 8.06358 62.505 7.96141 62.6732 7.75708C62.8595 7.56477 62.9617 7.17714 62.9797 6.5942C63.0338 4.91147 63.0699 3.394 63.0879 2.04181H57.8234C57.3546 2.85914 56.8167 3.61636 56.2097 4.3135C56.0535 4.12719 55.8612 3.93188 55.6328 3.72755C56.6184 2.69387 57.3937 1.47088 57.9586 0.0585938ZM60.5638 3.93488H57.7603V6.02627H60.5638V3.93488Z" fill="white"/>
<path d="M68.2262 4.98899H70.2365V3.48355H67.3338V2.81647H70.2365V1.31553C69.4973 1.36061 68.71 1.40418 67.8747 1.44625C67.8266 1.22388 67.7725 1.00152 67.7124 0.779158C69.7016 0.701032 71.5256 0.577832 73.1843 0.409559L73.3465 1.06763C72.6254 1.13674 71.8291 1.20285 70.9577 1.26595V2.81647H73.7522V3.48355H70.9577V4.98899H72.995V8.98247H72.2918V8.34243H68.9294V8.98247H68.2262V4.98899ZM72.2918 5.63804H68.9294V7.69338H72.2918V5.63804ZM67.8566 6.69276C67.8747 7.01728 67.8957 7.28472 67.9197 7.49506C67.2346 7.94579 66.6307 8.3845 66.1078 8.81119L65.6841 8.2072C65.8884 8.01489 65.9906 7.74446 65.9906 7.3959V3.85315H64.8638V3.2041H66.6847V7.53112C66.9912 7.3388 67.3819 7.05935 67.8566 6.69276ZM65.7833 0.238281C66.4383 0.911373 66.9131 1.41019 67.2076 1.73471L66.5766 2.26658C66.1979 1.76777 65.7502 1.25093 65.2334 0.716056L65.7833 0.238281Z" fill="white"/>
<path d="M82.235 1.89713V5.59312H81.5589V5.25958H80.7205V7.6124C80.7205 7.95495 80.8677 8.12623 81.1622 8.12623H81.7752C82.0276 8.12623 82.1749 7.985 82.2169 7.70254C82.265 7.38403 82.2951 6.98738 82.3071 6.51261C82.5114 6.59675 82.7548 6.6869 83.0373 6.78305C83.0012 7.19171 82.9501 7.59437 82.884 7.99101C82.7999 8.50184 82.4784 8.75725 81.9195 8.75725H81.054C80.3749 8.75725 80.0354 8.41169 80.0354 7.72057V5.25958H79.0889C79.0738 6.24217 78.9206 6.98137 78.6291 7.47718C78.2986 8.0481 77.6585 8.54691 76.709 8.97361C76.5768 8.76927 76.4326 8.56494 76.2763 8.36061C77.1177 8.04209 77.6916 7.63944 77.9981 7.15265C78.2595 6.77103 78.3992 6.14001 78.4173 5.25958H77.7727V5.59312H77.0966V1.89713H79.9092C80.2728 1.37428 80.6514 0.770298 81.045 0.0851865L81.7392 0.499859C81.3425 1.04675 80.9909 1.5125 80.6844 1.89713H82.235ZM81.5589 2.52815H77.7727V4.62856H81.5589V2.52815ZM77.0335 6.08893C77.0455 6.28725 77.0786 6.53966 77.1327 6.84615C76.6579 7.21876 76.1922 7.59136 75.7354 7.96397C75.5972 8.08416 75.465 8.22239 75.3388 8.37864L74.8249 7.81072C75.0112 7.61841 75.1044 7.34196 75.1044 6.98137V3.76315H74.0767V3.10509H75.7985V7.10758C76.2012 6.78906 76.6128 6.44951 77.0335 6.08893ZM75.1044 0.166318C75.5671 0.623059 76.0359 1.11586 76.5107 1.64472L75.8977 2.15855C75.4049 1.52152 74.9662 1.00468 74.5816 0.608034L75.1044 0.166318ZM77.4752 0.472815L77.9981 0.0761719C78.5209 0.647098 78.8935 1.08581 79.1159 1.39231L78.5119 1.816C78.1994 1.37728 77.8539 0.929556 77.4752 0.472815Z" fill="white"/>
<path d="M86.5706 9.02888C86.4143 8.8546 86.219 8.6713 85.9846 8.47899C86.7178 7.81792 87.2016 7.17187 87.436 6.54085C87.6644 5.94588 87.7786 5.00235 87.7786 3.71026V0.537109H91.736V7.83895C91.736 8.55411 91.3904 8.91169 90.6993 8.91169C90.2726 8.91169 89.7618 8.90268 89.1668 8.88465C89.1307 8.64426 89.0857 8.39786 89.0316 8.14545C89.6265 8.18151 90.1073 8.19954 90.4739 8.19954C90.8405 8.19954 91.0238 8.02225 91.0238 7.66767V5.91884H88.3375C88.1692 7.04266 87.5802 8.07934 86.5706 9.02888ZM83.8662 0.825576H86.6878V6.95552H84.5423V7.61359H83.8662V0.825576ZM88.4231 5.26979H91.0238V3.55701H88.4907C88.4967 4.17601 88.4742 4.74694 88.4231 5.26979ZM91.0238 1.21321H88.4907V2.90795H91.0238V1.21321ZM86.0117 6.29745V4.17902H84.5423V6.29745H86.0117ZM86.0117 1.48364H84.5423V3.53898H86.0117V1.48364Z" fill="white"/>
<path d="M93.963 2.52003L94.4948 2.24057C94.8524 2.80849 95.2085 3.38843 95.5631 3.98039C95.8546 3.35238 96.1055 2.72736 96.3158 2.10535L96.9288 2.33072C96.6313 3.13903 96.3038 3.90677 95.9462 4.63395C96.2918 5.22291 96.6343 5.82539 96.9739 6.44139L96.3609 6.76591C96.1115 6.29114 95.8546 5.81337 95.5901 5.33259C95.2205 6.02671 94.8224 6.68178 94.3957 7.29778L93.8548 6.98677V8.86632H93.1787V0.626953H100.859V7.85668C100.859 8.49972 100.513 8.82125 99.8225 8.82125C99.4379 8.82125 98.9781 8.81524 98.4433 8.80322C98.4132 8.61091 98.3711 8.37653 98.317 8.10008C98.8219 8.14215 99.2516 8.16318 99.6061 8.16318C99.9908 8.16318 100.183 7.99791 100.183 7.66737V1.27601H93.8548V6.94621C94.3716 6.18597 94.8269 5.42724 95.2205 4.67001C94.8209 3.95786 94.4017 3.2412 93.963 2.52003ZM96.9649 2.95273L97.4877 2.64623C97.7882 3.13302 98.0992 3.64836 98.4207 4.19224C98.7663 3.50412 99.0592 2.82652 99.2996 2.15944L99.9126 2.39382C99.5731 3.25021 99.202 4.06754 98.7993 4.8458C99.1779 5.49485 99.5701 6.18297 99.9757 6.91015L99.3718 7.2527C99.0713 6.68178 98.7588 6.10484 98.4342 5.52189C98.0616 6.18898 97.665 6.82301 97.2443 7.42398L96.6944 7.07241C97.2113 6.3242 97.668 5.588 98.0646 4.86383C97.7131 4.2328 97.3465 3.59577 96.9649 2.95273Z" fill="white"/>
<path d="M104.879 3.09622C105.619 2.07456 106.172 1.05291 106.538 0.03125L107.214 0.256615C107.097 0.533064 106.975 0.800498 106.849 1.05892H110.072V1.69895C109.636 2.44717 109.083 3.10974 108.413 3.68668C108.993 4.04125 109.771 4.36127 110.748 4.64674C110.628 4.85708 110.508 5.1155 110.387 5.42199C109.393 5.07643 108.542 4.64373 107.836 4.12389C107.028 4.6888 106.133 5.15756 105.15 5.53017C105.024 5.32584 104.879 5.1155 104.717 4.89915C105.64 4.58664 106.493 4.17197 107.277 3.65513C106.83 3.23445 106.474 2.7732 106.209 2.27138C105.936 2.73714 105.649 3.17134 105.348 3.574C105.234 3.44178 105.078 3.28252 104.879 3.09622ZM105.574 5.4851H110.027V8.99178H109.333V8.54105H106.268V8.99178H105.574V5.4851ZM102.941 5.44002C103.566 5.37993 104.158 5.31081 104.717 5.23269C104.693 5.50313 104.672 5.70746 104.654 5.84568C103.59 5.9779 102.755 6.08908 102.148 6.17922L102.004 5.52115C102.349 5.26875 102.833 4.60467 103.455 3.52892C102.881 3.56799 102.415 3.60404 102.058 3.6371L101.878 3.04213C102.455 2.1587 102.944 1.18813 103.347 0.130411L104.05 0.38282C103.647 1.24221 103.179 2.11062 102.644 2.98805C102.881 2.98805 103.257 2.98204 103.771 2.97002C103.99 2.57337 104.224 2.13166 104.474 1.64487L105.141 1.93333C104.42 3.21341 103.687 4.38231 102.941 5.44002ZM109.333 6.13415H106.268V7.892H109.333V6.13415ZM109.252 1.67191H106.574C106.899 2.29091 107.315 2.82128 107.823 3.26299C108.403 2.79724 108.879 2.26688 109.252 1.67191ZM101.878 7.54944C102.875 7.35713 103.915 7.13477 104.997 6.88236C104.973 7.17083 104.961 7.3992 104.961 7.56747C103.999 7.78382 103.038 8.0152 102.076 8.2616L101.878 7.54944Z" fill="white"/>
<path d="M116.157 1.30276H119.582V8.73081H118.87V7.82033H116.869V8.73081H116.157V1.30276ZM111.208 1.74448H112.465C112.471 1.26069 112.473 0.722819 112.47 0.130859H113.182C113.182 0.728829 113.179 1.2667 113.173 1.74448H115.273C115.243 4.05222 115.204 5.86416 115.156 7.1803C115.132 8.26205 114.723 8.78189 113.93 8.73983C113.696 8.73983 113.35 8.73081 112.893 8.71278C112.851 8.46037 112.803 8.19895 112.749 7.92851C113.17 7.9826 113.513 8.00964 113.777 8.00964C114.18 8.02166 114.399 7.7362 114.435 7.15325C114.501 5.72894 114.54 4.15439 114.552 2.42959H113.164C113.158 2.88934 113.149 3.27997 113.137 3.60149C113.113 5.9513 112.548 7.76024 111.442 9.02829C111.292 8.84199 111.115 8.64066 110.91 8.42431C111.908 7.33054 112.416 5.69889 112.434 3.52937C112.446 3.21386 112.455 2.84727 112.461 2.42959H111.208V1.74448ZM118.87 1.96984H116.869V7.17128H118.87V1.96984Z" fill="white"/>
<path d="M124.261 8.37022C124.973 7.88344 125.613 7.29598 126.181 6.60787C125.875 5.68237 125.679 4.51497 125.595 3.10569H120.285V2.50171H122.53V1.66335H120.655V1.09543H122.53V0.175932H123.197V1.09543H124.973V1.66335H123.197V2.50171H125.559C125.523 1.78655 125.49 0.996262 125.46 0.130859H126.154C126.157 0.975228 126.18 1.76551 126.222 2.50171H129.219V3.10569H126.258C126.321 4.21448 126.464 5.15952 126.686 5.94078C127.14 5.29474 127.539 4.57507 127.885 3.78178L128.507 4.07025C128.044 5.06486 127.524 5.94379 126.947 6.70703C127.134 7.14874 127.353 7.51985 127.605 7.82033C127.762 8.00063 127.906 8.09077 128.038 8.09077C128.2 8.09077 128.309 7.97058 128.363 7.73019C128.435 7.40566 128.504 6.997 128.57 6.5042C128.81 6.61237 129.027 6.69351 129.219 6.74759C129.141 7.25842 129.054 7.71216 128.958 8.1088C128.807 8.64367 128.54 8.9111 128.155 8.9111C127.717 8.9111 127.299 8.63165 126.902 8.07274C126.74 7.85038 126.593 7.59647 126.461 7.31101C125.944 7.90297 125.388 8.41229 124.793 8.83899C124.613 8.63465 124.435 8.4784 124.261 8.37022ZM121.557 5.64781H122.792V4.81846H123.432V5.64781H125.135V6.21573H123.432V7.05409C123.981 7.00902 124.561 6.96094 125.171 6.90986C125.153 7.10217 125.144 7.29749 125.144 7.49581C124.603 7.53187 124.033 7.57544 123.432 7.62652V8.94716H122.792V7.68511C122.085 7.74521 121.34 7.81733 120.556 7.90146L120.412 7.25241C121.127 7.21335 121.92 7.16227 122.792 7.09916V6.21573H120.808V5.62978C121.052 5.31427 121.291 4.9627 121.525 4.57507H120.502V4.00715H121.854C122.001 3.73971 122.146 3.45726 122.287 3.15977L122.954 3.36711C122.831 3.59248 122.71 3.80582 122.593 4.00715H125.207V4.57507H122.255C122.006 4.98373 121.773 5.34131 121.557 5.64781ZM126.758 0.788926L127.2 0.347209C127.807 0.80395 128.299 1.20961 128.678 1.56419L128.164 2.08703C127.756 1.64832 127.287 1.21562 126.758 0.788926Z" fill="white"/>
<path d="M133.988 0.103516H134.736V3.9167C135.905 3.07233 136.866 2.1889 137.621 1.2664L138.261 1.74418C137.287 2.81692 136.112 3.83707 134.736 4.80464V7.41438C134.736 7.81102 134.91 8.00934 135.259 8.00934H136.8C137.197 8.00934 137.425 7.83205 137.485 7.47748C137.557 7.02074 137.612 6.51892 137.648 5.97204C137.9 6.06819 138.158 6.15533 138.423 6.23346C138.369 6.79237 138.297 7.29418 138.207 7.7389C138.08 8.35791 137.681 8.66741 137.008 8.66741H135.024C134.333 8.66741 133.988 8.2918 133.988 7.54058V0.103516ZM130.869 0.337896V3.04228H133.411V3.71838H130.869V7.54959C131.494 7.28517 132.311 6.91256 133.321 6.43178C133.321 6.71424 133.333 6.98468 133.357 7.2431C132.473 7.59767 131.725 7.93121 131.112 8.24372C130.848 8.38194 130.604 8.54721 130.382 8.73953L129.832 8.03638C130.024 7.89215 130.12 7.67279 130.12 7.37832V0.337896H130.869Z" fill="white"/>
<path d="M139.568 4.54833H140.641V2.57412H141.272V4.54833H142.191V5.13428H141.272V6.35576C141.668 6.30768 142.059 6.2581 142.443 6.20702C142.413 6.43539 142.392 6.64272 142.38 6.82902C142.044 6.86809 141.674 6.91316 141.272 6.96424V8.98352H140.641V7.04087C140.07 7.11599 139.442 7.19862 138.756 7.28877L138.684 6.6307C139.354 6.5676 140.006 6.50149 140.641 6.43238V5.13428H138.91V4.56635C139.234 3.6679 139.512 2.84757 139.744 2.10536H138.793V1.50138H139.924C140.08 0.978536 140.208 0.497756 140.307 0.0590448L141.001 0.203278C140.878 0.602927 140.741 1.03563 140.591 1.50138H142.164V2.10536H140.397C140.154 2.84757 139.877 3.66189 139.568 4.54833ZM146.536 4.39508C146.224 5.3927 145.824 6.20852 145.337 6.84255C145.926 7.39544 146.713 7.82364 147.699 8.12713C147.471 8.39156 147.284 8.62293 147.14 8.82126C146.206 8.44264 145.441 7.96937 144.846 7.40145C144.161 8.08056 143.3 8.6019 142.263 8.96549C142.185 8.80924 142.041 8.59589 141.83 8.32545C142.867 7.97689 143.714 7.4946 144.373 6.87861C143.898 6.27463 143.51 5.51289 143.21 4.5934L143.823 4.31395C144.078 5.10723 144.424 5.77732 144.859 6.32421C145.292 5.72924 145.629 5.01108 145.869 4.16971L146.536 4.39508ZM142.488 1.47434H144.792C144.593 1.12577 144.349 0.76519 144.057 0.392586L144.607 0.0410156C144.943 0.419629 145.232 0.795239 145.472 1.16784L144.999 1.47434H147.546V2.10536H142.488V1.47434ZM145.292 2.83555L145.788 2.40285C146.425 2.99781 147.026 3.61681 147.591 4.25986L147.05 4.74665C146.533 4.12163 145.947 3.4846 145.292 2.83555ZM143.76 2.3758L144.355 2.7454C143.82 3.56874 143.297 4.2839 142.786 4.89088C142.576 4.70458 142.392 4.56034 142.236 4.45818C142.777 3.8572 143.285 3.16308 143.76 2.3758Z" fill="white"/>
<path d="M151.206 0.491141H156.065V3.20455H155.424V3.04228H151.846V3.20455H151.206V0.491141ZM150.719 3.6102H156.551V5.65652H155.938V5.46722H151.332V5.65652H150.719V3.6102ZM151.007 6.53094V6.03514H155.938V6.567C155.5 7.06581 154.986 7.47748 154.397 7.802C154.409 7.802 154.421 7.80501 154.433 7.81102C154.818 7.96727 155.617 8.11752 156.831 8.26175C156.777 8.35791 156.656 8.57726 156.47 8.91982C155.322 8.72751 154.379 8.4751 153.64 8.16259C152.822 8.50514 151.828 8.7876 150.656 9.00996C150.62 8.91982 150.512 8.71248 150.331 8.38795C151.347 8.23771 152.215 8.04239 152.936 7.802C152.414 7.48349 151.966 7.0598 151.593 6.53094H151.007ZM149.168 0.220703H149.817V2.22195L150.241 1.96053C150.524 2.35116 150.788 2.7448 151.034 3.14144L150.512 3.51104C150.313 3.12041 150.082 2.73278 149.817 2.34816V8.98292H149.168V0.220703ZM155.424 0.986946H151.846V1.52783H155.424V0.986946ZM151.846 2.54648H155.424V2.0056H151.846V2.54648ZM155.127 6.53094H152.323C152.69 6.95162 153.144 7.28216 153.685 7.52255C154.268 7.25211 154.748 6.92158 155.127 6.53094ZM148.312 2.249L148.916 2.33914C148.826 3.06632 148.694 3.83557 148.519 4.64689C148.351 4.60482 148.15 4.55674 147.915 4.50265C148.06 3.88365 148.192 3.13243 148.312 2.249ZM153.045 4.97141H154.226V4.10601H153.045V4.97141ZM151.332 4.97141H152.486V4.10601H151.332V4.97141ZM155.938 4.10601H154.784V4.97141H155.938V4.10601Z" fill="white"/>
<path d="M159.815 6.65234L159.053 9.05474H158.422L158.976 6.65234H159.815Z" fill="white"/>
<path d="M170.281 8.9102H169.577V4.33979H174.59V7.84648C174.59 8.49553 174.256 8.82306 173.589 8.82907C173.234 8.83508 172.781 8.83809 172.228 8.83809C172.198 8.64577 172.153 8.4144 172.093 8.14396C172.615 8.18002 173.042 8.19805 173.373 8.19805C173.715 8.19805 173.886 8.04179 173.886 7.72929V7.27856H170.281V8.9102ZM168.784 3.22198H171.696V2.59997H169.388V2.03205H171.696V1.42807H169.073V0.860144H171.696V0.0488281H172.426V0.860144H175.176V1.42807H172.426V2.03205H174.941V2.59997H172.426V3.22198H175.356V3.7899H168.784V3.22198ZM169.226 6.68359C169.244 6.98408 169.265 7.2455 169.289 7.46786C168.64 7.90057 168.09 8.2912 167.639 8.63976L167.225 8.0448C167.429 7.85249 167.531 7.59106 167.531 7.26053V3.853H166.431V3.19493H168.216V7.39575C168.553 7.16738 168.889 6.92999 169.226 6.68359ZM173.886 4.91672H170.281V5.53873H173.886V4.91672ZM170.281 6.71965H173.886V6.09764H170.281V6.71965ZM167.45 0.355325C167.943 0.842115 168.378 1.29585 168.757 1.71653L168.126 2.23938C167.711 1.70451 167.306 1.22974 166.909 0.815071L167.45 0.355325Z" fill="white"/>
<path d="M179.971 8.92883H179.277V2.63663H181.378V0.103516H182.099V2.63663H184.136V7.82003C184.136 8.53519 183.803 8.89277 183.135 8.89277C182.757 8.89277 182.306 8.88376 181.783 8.86573C181.753 8.63736 181.708 8.39096 181.648 8.12653C182.153 8.16259 182.577 8.18362 182.919 8.18963C183.268 8.18362 183.442 8.01235 183.442 7.6758V6.82842H179.971V8.92883ZM175.581 6.5039C176.14 5.72263 176.609 4.716 176.987 3.484H175.626V2.84396H177.069V1.40613C176.69 1.43918 176.29 1.47073 175.87 1.50078C175.84 1.30847 175.798 1.09212 175.743 0.851729C176.855 0.791632 177.88 0.692471 178.817 0.554247L178.962 1.22133C178.589 1.2634 178.18 1.30547 177.736 1.34753V2.84396H178.989V3.484H177.736V4.73703L178.123 4.42152C178.424 4.75206 178.775 5.16673 179.178 5.66554L178.628 6.11627C178.325 5.69559 178.027 5.30345 177.736 4.93986V8.96489H177.069V5.04804C176.753 5.92546 176.362 6.66917 175.897 7.27916C175.801 7.02675 175.695 6.76833 175.581 6.5039ZM179.971 6.17937H183.442V5.06156H179.971V6.17937ZM183.442 3.31272H179.971V4.42152H183.442V3.31272ZM182.757 1.92447C183.153 1.45571 183.529 0.938871 183.884 0.373954L184.506 0.788627C184.157 1.2634 183.745 1.78324 183.271 2.34816L182.757 1.92447ZM179.061 0.743554L179.575 0.36494C179.995 0.857739 180.398 1.35955 180.783 1.87038L180.179 2.29407C179.83 1.75319 179.457 1.23635 179.061 0.743554Z" fill="white"/>
<path d="M184.902 4.44871H188.923V3.55627H185.533V2.97032H188.923V2.25816H189.626V2.97032H193.16V3.55627H189.626V4.44871H193.791V5.05269H184.902V4.44871ZM185.209 5.93613H190.852V5.22397H191.555V5.93613H193.484V6.54011H191.555V7.73905C191.555 8.49628 191.164 8.87489 190.383 8.87489C189.926 8.87489 189.467 8.87189 189.004 8.86588C188.974 8.64953 188.929 8.39411 188.869 8.09964C189.35 8.14771 189.791 8.17175 190.194 8.17175C190.633 8.17175 190.852 7.99447 190.852 7.63989V6.54011H185.209V5.93613ZM186.588 0.0585938H187.363C187.225 0.353071 187.072 0.635529 186.904 0.905968H189.518V1.46487H186.516C186.161 1.93964 185.75 2.37836 185.281 2.78101C185.161 2.63678 185.01 2.47451 184.83 2.29422C185.581 1.68724 186.167 0.942026 186.588 0.0585938ZM190.446 0.0585938H191.222C191.086 0.356076 190.945 0.638534 190.798 0.905968H193.701V1.46487H190.469C190.264 1.7864 190.05 2.08087 189.824 2.34831C189.572 2.16802 189.371 2.04782 189.22 1.98772C189.743 1.42281 190.152 0.779763 190.446 0.0585938ZM186.886 7.06295L187.363 6.60321C187.772 6.95177 188.19 7.32738 188.616 7.73004L188.093 8.22584C187.769 7.88329 187.366 7.49566 186.886 7.06295ZM187.634 2.80805C187.405 2.50757 187.156 2.20107 186.886 1.88856L187.354 1.55502C187.643 1.83147 187.913 2.11393 188.166 2.4024L187.634 2.80805ZM191.564 2.80805C191.45 2.62776 191.207 2.32126 190.834 1.88856L191.303 1.55502C191.627 1.86753 191.892 2.14999 192.096 2.4024L191.564 2.80805Z" fill="white"/>
<path d="M194.097 3.87109H203.058V4.66438H194.097V3.87109Z" fill="white"/>
<path d="M209.161 6.36838C210.032 7.14364 210.783 7.87082 211.414 8.54992L210.828 9.07277C210.636 8.85041 210.414 8.60401 210.161 8.33357C208.665 8.42371 207.135 8.52588 205.573 8.64006C205.32 8.6641 205.065 8.73021 204.807 8.83839L204.401 8.09017C204.695 7.982 204.945 7.83776 205.149 7.65747C205.672 7.14664 206.177 6.54867 206.664 5.86356H203.662V5.19648H211.937V5.86356H207.574C206.961 6.63882 206.363 7.32693 205.78 7.92791C207.108 7.8618 208.376 7.7987 209.584 7.7386C209.308 7.45614 209.004 7.14965 208.674 6.81911L209.161 6.36838ZM207.799 0.923543C206.597 2.34185 205.248 3.4837 203.752 4.3491C203.608 4.13275 203.442 3.9134 203.256 3.69104C204.981 2.8076 206.378 1.64171 207.448 0.193359H208.412L208.241 0.418724C209.281 1.80698 210.654 2.82563 212.361 3.47469C212.181 3.71508 212.012 3.97049 211.856 4.24093C210.113 3.39355 208.761 2.28776 207.799 0.923543ZM205.293 3.33947H210.269V4.00655H205.293V3.33947Z" fill="white"/>
<path d="M214.858 0.328727H215.633V3.3306C215.633 4.809 215.468 5.88174 215.137 6.54882C214.801 7.31206 214.116 8.09633 213.082 8.90164C212.944 8.71534 212.763 8.49298 212.541 8.23456C213.491 7.52541 214.116 6.83428 214.416 6.16119C214.711 5.59027 214.858 4.64674 214.858 3.3306V0.328727ZM217.661 0.265625H218.437V7.2159C218.425 7.70269 218.689 7.94008 219.23 7.92806H219.753C220.24 7.92806 220.513 7.70569 220.573 7.26097C220.639 6.81625 220.687 6.22729 220.717 5.4941C220.97 5.59627 221.237 5.69543 221.52 5.79158C221.46 6.53679 221.393 7.11073 221.321 7.51339C221.213 8.2646 220.738 8.64021 219.897 8.64021H219.059C218.097 8.67026 217.631 8.21952 217.661 7.28801V0.265625Z" fill="white"/>
<path d="M224.431 6.65234L223.67 9.05474H223.039L223.593 6.65234H224.431Z" fill="white"/>
<path d="M231.111 4.3488H235.114V2.3115H231.85V1.62639H235.114V0.0488281H235.898V1.62639H239.224V2.3115H235.898V4.3488H239.937V5.03391H235.474C234.819 5.9504 234.083 6.8759 233.266 7.81042C233.948 7.79239 235.461 7.74581 237.805 7.67069C237.405 7.13582 236.983 6.59044 236.538 6.03454L237.106 5.63789C237.917 6.59344 238.699 7.57003 239.45 8.56765L238.783 9.01838C238.608 8.76897 238.428 8.51656 238.242 8.26115C236.226 8.32726 234.48 8.4174 233.004 8.53159C232.83 8.54962 232.572 8.5977 232.229 8.67582L231.841 7.92761C232.142 7.82544 232.391 7.6752 232.59 7.47688C233.236 6.78876 233.87 5.97444 234.492 5.03391H231.111V4.3488Z" fill="white"/>
<path d="M245.994 4.97245L246.598 5.19782C246.514 5.33003 246.43 5.46225 246.346 5.59446C246.749 5.89495 247.154 6.21347 247.563 6.55001L247.166 7.04582C246.752 6.66119 246.367 6.33066 246.012 6.05421C245.7 6.45686 245.366 6.81444 245.012 7.12695C244.85 6.94665 244.699 6.79341 244.561 6.6672C245.12 6.2345 245.598 5.66958 245.994 4.97245ZM248.077 4.95442H244.318C243.987 5.38112 243.642 5.75372 243.281 6.07224C243.185 5.90997 243.077 5.7417 242.956 5.56742V7.44246H242.307V6.72129H241.289V7.53261H240.64V1.01503H242.956V5.48629C243.515 4.98748 244.014 4.36547 244.453 3.62026H243.75V0.492188H248.311V3.84562H247.662V3.62026H244.462L245.075 3.85464C244.961 4.03493 244.85 4.20921 244.741 4.37749H248.762C248.714 6.37873 248.66 7.55364 248.6 7.9022C248.497 8.55126 248.14 8.87578 247.527 8.87578C246.986 8.87578 246.514 8.87278 246.112 8.86677C246.094 8.62037 246.067 8.38599 246.03 8.16363C246.409 8.19368 246.857 8.21171 247.374 8.21772C247.728 8.21772 247.924 8.01639 247.96 7.61374C248.008 7.19906 248.047 6.31263 248.077 4.95442ZM242.307 1.65507H241.289V6.08125H242.307V1.65507ZM243.768 5.61249H244.399V7.27118H247.419V7.84812H243.768V5.61249ZM244.399 3.04332H247.662V2.33117H244.399V3.04332ZM247.662 1.06912H244.399V1.77226H247.662V1.06912Z" fill="white"/>
<path d="M252.124 6.33292C253.471 4.8425 254.474 3.19283 255.135 1.38389H252.764V0.734838H258.371V1.38389H255.883C255.679 1.98487 255.439 2.56781 255.162 3.13273H255.685V9.01928H254.982V3.49331C254.375 4.67123 253.621 5.78904 252.719 6.84675C252.557 6.68449 252.359 6.51321 252.124 6.33292ZM249.465 5.78303C250.102 4.7794 250.553 3.69164 250.817 2.51974H249.528V1.88871H250.943V0.130859H251.638V1.88871H253.035V2.51974H251.638V3.63755L251.998 3.29499C252.239 3.51735 252.575 3.84789 253.008 4.2866L252.485 4.77339C252.106 4.32266 251.824 4.00114 251.638 3.80883V9.01928H250.943V3.78178C250.607 4.98974 250.21 5.92125 249.753 6.57632C249.675 6.3179 249.579 6.05347 249.465 5.78303ZM255.829 3.92602L256.379 3.52036C257.221 4.54803 257.903 5.44047 258.426 6.1977L257.822 6.67548C257.118 5.61175 256.454 4.69526 255.829 3.92602Z" fill="white"/>
<path d="M262.789 0.130859H263.519V1.57771C263.777 2.28085 264.073 2.93441 264.407 3.53839C265.071 2.98549 265.733 2.32442 266.395 1.55517L266.998 2.09605C266.295 2.83224 265.553 3.51886 264.772 4.15589C265.565 5.41193 266.536 6.43208 267.684 7.21635C267.431 7.46876 267.227 7.69413 267.071 7.89245C265.49 6.64843 264.306 5.10843 263.519 3.27246V7.48679C263.519 8.38225 263.089 8.82997 262.23 8.82997C261.965 8.82997 261.575 8.82697 261.058 8.82096C261.028 8.5986 260.98 8.32816 260.914 8.00964C261.394 8.05772 261.785 8.08176 262.086 8.08176C262.554 8.08176 262.789 7.85639 262.789 7.40566V0.130859ZM258.939 3.01554V2.33043H262.049V2.9885C261.539 4.95969 260.607 6.64843 259.255 8.05471C259.051 7.82033 258.867 7.63704 258.705 7.50482C260.063 6.0745 260.938 4.57807 261.328 3.01554H258.939Z" fill="white"/>
<path d="M272.11 7.35998C272.11 7.79268 272.32 8.00903 272.741 8.00903H275.454C275.815 8.00903 276.019 7.81071 276.067 7.41407C276.121 6.96333 276.166 6.47654 276.202 5.9537C276.275 5.98375 276.5 6.07089 276.878 6.21512C276.818 6.78605 276.761 7.26082 276.707 7.63943C276.611 8.30651 276.235 8.64005 275.58 8.64005H272.606C271.83 8.64005 271.443 8.26144 271.443 7.50421V0.544922H276.202V4.99815H275.535V4.68263H272.11V7.35998ZM268.324 1.07679H270.595V6.99939H269.946V6.3864H268.973V7.32392H268.324V1.07679ZM275.535 1.19398H274.147V4.03358H275.535V1.19398ZM272.11 4.03358H273.498V1.19398H272.11V4.03358ZM269.946 1.70781H268.973V5.75537H269.946V1.70781Z" fill="white"/>
<path d="M282.878 4.10547C282.851 4.59827 282.715 4.97839 282.472 5.24582C282.229 5.51325 281.903 5.64697 281.494 5.64697C281.139 5.64697 280.711 5.47269 280.209 5.12412C279.888 4.91078 279.631 4.8041 279.439 4.8041C278.991 4.8041 278.758 5.08656 278.74 5.65148H278.041C278.062 5.15868 278.198 4.77856 278.447 4.51113C278.696 4.24369 279.024 4.10998 279.43 4.10998C279.769 4.10998 280.151 4.25121 280.574 4.53366C280.998 4.81913 281.315 4.96186 281.526 4.96186C281.724 4.96186 281.882 4.88373 281.999 4.72748C282.116 4.57122 282.178 4.36389 282.184 4.10547H282.878Z" fill="white"/>
</svg>
